<svg width="356" height="136" viewBox="0 0 356 136" fill="none" xmlns="http://www.w3.org/2000/svg">
<path d="M4.704 13.556V20.08H11.816V22.18H4.704V28.9H12.656V31H2.156V11.456H12.656V13.556H4.704ZM15.5595 23.272C15.5595 21.704 15.8768 20.332 16.5115 19.156C17.1461 17.9613 18.0141 17.0373 19.1155 16.384C20.2355 15.7307 21.4861 15.404 22.8675 15.404C24.0621 15.404 25.1728 15.684 26.1995 16.244C27.2261 16.7853 28.0101 17.504 28.5515 18.4V10.28H31.1275V31H28.5515V28.116C28.0475 29.0307 27.3008 29.7867 26.3115 30.384C25.3221 30.9627 24.1648 31.252 22.8395 31.252C21.4768 31.252 20.2355 30.916 19.1155 30.244C18.0141 29.572 17.1461 28.6293 16.5115 27.416C15.8768 26.2027 15.5595 24.8213 15.5595 23.272ZM28.5515 23.3C28.5515 22.1427 28.3181 21.1347 27.8515 20.276C27.3848 19.4173 26.7501 18.764 25.9475 18.316C25.1635 17.8493 24.2955 17.616 23.3435 17.616C22.3915 17.616 21.5235 17.84 20.7395 18.288C19.9555 18.736 19.3301 19.3893 18.8635 20.248C18.3968 21.1067 18.1635 22.1147 18.1635 23.272C18.1635 24.448 18.3968 25.4747 18.8635 26.352C19.3301 27.2107 19.9555 27.8733 20.7395 28.34C21.5235 28.788 22.3915 29.012 23.3435 29.012C24.2955 29.012 25.1635 28.788 25.9475 28.34C26.7501 27.8733 27.3848 27.2107 27.8515 26.352C28.3181 25.4747 28.5515 24.4573 28.5515 23.3ZM49.0413 15.656V31H46.4933V28.732C46.008 29.516 45.3267 30.132 44.4493 30.58C43.5907 31.0093 42.6387 31.224 41.5933 31.224C40.3987 31.224 39.3253 30.9813 38.3733 30.496C37.4213 29.992 36.6653 29.2453 36.1053 28.256C35.564 27.2667 35.2933 26.0627 35.2933 24.644V15.656H37.8133V24.308C37.8133 25.82 38.196 26.9867 38.9613 27.808C39.7267 28.6107 40.772 29.012 42.0973 29.012C43.46 29.012 44.5333 28.592 45.3173 27.752C46.1013 26.912 46.4933 25.6893 46.4933 24.084V15.656H49.0413ZM52.3915 23.3C52.3915 21.7133 52.7088 20.332 53.3435 19.156C53.9782 17.9613 54.8555 17.0373 55.9755 16.384C57.1142 15.7307 58.4115 15.404 59.8675 15.404C61.7528 15.404 63.3022 15.8613 64.5155 16.776C65.7475 17.6907 66.5595 18.96 66.9515 20.584H64.2075C63.9462 19.6507 63.4328 18.9133 62.6675 18.372C61.9208 17.8307 60.9875 17.56 59.8675 17.56C58.4115 17.56 57.2355 18.064 56.3395 19.072C55.4435 20.0613 54.9955 21.4707 54.9955 23.3C54.9955 25.148 55.4435 26.576 56.3395 27.584C57.2355 28.592 58.4115 29.096 59.8675 29.096C60.9875 29.096 61.9208 28.8347 62.6675 28.312C63.4142 27.7893 63.9275 27.0427 64.2075 26.072H66.9515C66.5408 27.64 65.7195 28.9 64.4875 29.852C63.2555 30.7853 61.7155 31.252 59.8675 31.252C58.4115 31.252 57.1142 30.9253 55.9755 30.272C54.8555 29.6187 53.9782 28.6947 53.3435 27.5C52.7088 26.3053 52.3915 24.9053 52.3915 23.3ZM69.3993 23.272C69.3993 21.704 69.7166 20.332 70.3513 19.156C70.986 17.9613 71.854 17.0373 72.9553 16.384C74.0753 15.7307 75.3166 15.404 76.6793 15.404C78.0233 15.404 79.19 15.6933 80.1793 16.272C81.1686 16.8507 81.906 17.5787 82.3913 18.456V15.656H84.9673V31H82.3913V28.144C81.8873 29.04 81.1313 29.7867 80.1233 30.384C79.134 30.9627 77.9766 31.252 76.6513 31.252C75.2886 31.252 74.0566 30.916 72.9553 30.244C71.854 29.572 70.986 28.6293 70.3513 27.416C69.7166 26.2027 69.3993 24.8213 69.3993 23.272ZM82.3913 23.3C82.3913 22.1427 82.158 21.1347 81.6913 20.276C81.2246 19.4173 80.59 18.764 79.7873 18.316C79.0033 17.8493 78.1353 17.616 77.1833 17.616C76.2313 17.616 75.3633 17.84 74.5793 18.288C73.7953 18.736 73.17 19.3893 72.7033 20.248C72.2366 21.1067 72.0033 22.1147 72.0033 23.272C72.0033 24.448 72.2366 25.4747 72.7033 26.352C73.17 27.2107 73.7953 27.8733 74.5793 28.34C75.3633 28.788 76.2313 29.012 77.1833 29.012C78.1353 29.012 79.0033 28.788 79.7873 28.34C80.59 27.8733 81.2246 27.2107 81.6913 26.352C82.158 25.4747 82.3913 24.4573 82.3913 23.3ZM88.3212 23.3C88.3212 21.7133 88.6385 20.332 89.2732 19.156C89.9079 17.9613 90.7852 17.0373 91.9052 16.384C93.0439 15.7307 94.3412 15.404 95.7972 15.404C97.6825 15.404 99.2319 15.8613 100.445 16.776C101.677 17.6907 102.489 18.96 102.881 20.584H100.137C99.8759 19.6507 99.3625 18.9133 98.5972 18.372C97.8505 17.8307 96.9172 17.56 95.7972 17.56C94.3412 17.56 93.1652 18.064 92.2692 19.072C91.3732 20.0613 90.9252 21.4707 90.9252 23.3C90.9252 25.148 91.3732 26.576 92.2692 27.584C93.1652 28.592 94.3412 29.096 95.7972 29.096C96.9172 29.096 97.8505 28.8347 98.5972 28.312C99.3439 27.7893 99.8572 27.0427 100.137 26.072H102.881C102.471 27.64 101.649 28.9 100.417 29.852C99.1852 30.7853 97.6452 31.252 95.7972 31.252C94.3412 31.252 93.0439 30.9253 91.9052 30.272C90.7852 29.6187 89.9079 28.6947 89.2732 27.5C88.6385 26.3053 88.3212 24.9053 88.3212 23.3ZM107.597 13.164C107.112 13.164 106.701 12.996 106.365 12.66C106.029 12.324 105.861 11.9133 105.861 11.428C105.861 10.9427 106.029 10.532 106.365 10.196C106.701 9.86 107.112 9.692 107.597 9.692C108.064 9.692 108.456 9.86 108.773 10.196C109.109 10.532 109.277 10.9427 109.277 11.428C109.277 11.9133 109.109 12.324 108.773 12.66C108.456 12.996 108.064 13.164 107.597 13.164ZM108.829 15.656V31H106.281V15.656H108.829ZM119.864 31.252C118.426 31.252 117.12 30.9253 115.944 30.272C114.786 29.6187 113.872 28.6947 113.2 27.5C112.546 26.2867 112.22 24.8867 112.22 23.3C112.22 21.732 112.556 20.3507 113.228 19.156C113.918 17.9427 114.852 17.0187 116.028 16.384C117.204 15.7307 118.52 15.404 119.976 15.404C121.432 15.404 122.748 15.7307 123.924 16.384C125.1 17.0187 126.024 17.9333 126.696 19.128C127.386 20.3227 127.732 21.7133 127.732 23.3C127.732 24.8867 127.377 26.2867 126.668 27.5C125.977 28.6947 125.034 29.6187 123.84 30.272C122.645 30.9253 121.32 31.252 119.864 31.252ZM119.864 29.012C120.778 29.012 121.637 28.7973 122.44 28.368C123.242 27.9387 123.886 27.2947 124.372 26.436C124.876 25.5773 125.128 24.532 125.128 23.3C125.128 22.068 124.885 21.0227 124.4 20.164C123.914 19.3053 123.28 18.6707 122.496 18.26C121.712 17.8307 120.862 17.616 119.948 17.616C119.014 17.616 118.156 17.8307 117.372 18.26C116.606 18.6707 115.99 19.3053 115.524 20.164C115.057 21.0227 114.824 22.068 114.824 23.3C114.824 24.5507 115.048 25.6053 115.496 26.464C115.962 27.3227 116.578 27.9667 117.344 28.396C118.109 28.8067 118.949 29.012 119.864 29.012ZM122.72 11.12L116.756 14.312V12.408L122.72 8.908V11.12ZM138.558 15.376C140.424 15.376 141.936 15.9453 143.094 17.084C144.251 18.204 144.83 19.828 144.83 21.956V31H142.31V22.32C142.31 20.7893 141.927 19.6227 141.162 18.82C140.396 17.9987 139.351 17.588 138.026 17.588C136.682 17.588 135.608 18.008 134.806 18.848C134.022 19.688 133.63 20.9107 133.63 22.516V31H131.082V15.656H133.63V17.84C134.134 17.056 134.815 16.4493 135.674 16.02C136.551 15.5907 137.512 15.376 138.558 15.376Z" fill="#E2E2FF"/>
<path d="M3.402 73.344H7.632V75H1.35V62.49H3.402V73.344ZM10.392 63.768C10.02 63.768 9.70805 63.642 9.45605 63.39C9.20405 63.138 9.07805 62.826 9.07805 62.454C9.07805 62.082 9.20405 61.77 9.45605 61.518C9.70805 61.266 10.02 61.14 10.392 61.14C10.752 61.14 11.058 61.266 11.31 61.518C11.562 61.77 11.688 62.082 11.688 62.454C11.688 62.826 11.562 63.138 11.31 63.39C11.058 63.642 10.752 63.768 10.392 63.768ZM11.4 65.082V75H9.34805V65.082H11.4ZM13.4101 70.032C13.4101 69.012 13.6141 68.118 14.0221 67.35C14.4421 66.57 15.0181 65.97 15.7501 65.55C16.4821 65.13 17.3221 64.92 18.2701 64.92C19.4701 64.92 20.4601 65.208 21.2401 65.784C22.0321 66.348 22.5661 67.158 22.8421 68.214H20.6281C20.4481 67.722 20.1601 67.338 19.7641 67.062C19.3681 66.786 18.8701 66.648 18.2701 66.648C17.4301 66.648 16.7581 66.948 16.2541 67.548C15.7621 68.136 15.5161 68.964 15.5161 70.032C15.5161 71.1 15.7621 71.934 16.2541 72.534C16.7581 73.134 17.4301 73.434 18.2701 73.434C19.4581 73.434 20.2441 72.912 20.6281 71.868H22.8421C22.5541 72.876 22.0141 73.68 21.2221 74.28C20.4301 74.868 19.4461 75.162 18.2701 75.162C17.3221 75.162 16.4821 74.952 15.7501 74.532C15.0181 74.1 14.4421 73.5 14.0221 72.732C13.6141 71.952 13.4101 71.052 13.4101 70.032ZM25.7151 75.126C25.3431 75.126 25.0311 75 24.7791 74.748C24.5271 74.496 24.4011 74.184 24.4011 73.812C24.4011 73.44 24.5271 73.128 24.7791 72.876C25.0311 72.624 25.3431 72.498 25.7151 72.498C26.0751 72.498 26.3811 72.624 26.6331 72.876C26.8851 73.128 27.0111 73.44 27.0111 73.812C27.0111 74.184 26.8851 74.496 26.6331 74.748C26.3811 75 26.0751 75.126 25.7151 75.126ZM37.9907 62.49C39.3227 62.49 40.4867 62.748 41.4827 63.264C42.4907 63.768 43.2647 64.5 43.8047 65.46C44.3567 66.408 44.6327 67.518 44.6327 68.79C44.6327 70.062 44.3567 71.166 43.8047 72.102C43.2647 73.038 42.4907 73.758 41.4827 74.262C40.4867 74.754 39.3227 75 37.9907 75H33.9047V62.49H37.9907ZM37.9907 73.326C39.4547 73.326 40.5767 72.93 41.3567 72.138C42.1367 71.346 42.5267 70.23 42.5267 68.79C42.5267 67.338 42.1367 66.204 41.3567 65.388C40.5767 64.572 39.4547 64.164 37.9907 64.164H35.9567V73.326H37.9907ZM47.7104 63.768C47.3384 63.768 47.0264 63.642 46.7744 63.39C46.5224 63.138 46.3964 62.826 46.3964 62.454C46.3964 62.082 46.5224 61.77 46.7744 61.518C47.0264 61.266 47.3384 61.14 47.7104 61.14C48.0704 61.14 48.3764 61.266 48.6284 61.518C48.8804 61.77 49.0064 62.082 49.0064 62.454C49.0064 62.826 48.8804 63.138 48.6284 63.39C48.3764 63.642 48.0704 63.768 47.7104 63.768ZM48.7184 65.082V75H46.6664V65.082H48.7184ZM55.0125 75.162C54.2325 75.162 53.5305 75.024 52.9065 74.748C52.2945 74.46 51.8085 74.076 51.4485 73.596C51.0885 73.104 50.8965 72.558 50.8725 71.958H52.9965C53.0325 72.378 53.2305 72.732 53.5905 73.02C53.9625 73.296 54.4245 73.434 54.9765 73.434C55.5525 73.434 55.9965 73.326 56.3085 73.11C56.6325 72.882 56.7945 72.594 56.7945 72.246C56.7945 71.874 56.6145 71.598 56.2545 71.418C55.9065 71.238 55.3485 71.04 54.5805 70.824C53.8365 70.62 53.2305 70.422 52.7625 70.23C52.2945 70.038 51.8865 69.744 51.5385 69.348C51.2025 68.952 51.0345 68.43 51.0345 67.782C51.0345 67.254 51.1905 66.774 51.5025 66.342C51.8145 65.898 52.2585 65.55 52.8345 65.298C53.4225 65.046 54.0945 64.92 54.8505 64.92C55.9785 64.92 56.8845 65.208 57.5685 65.784C58.2645 66.348 58.6365 67.122 58.6845 68.106H56.6325C56.5965 67.662 56.4165 67.308 56.0925 67.044C55.7685 66.78 55.3305 66.648 54.7785 66.648C54.2385 66.648 53.8245 66.75 53.5365 66.954C53.2485 67.158 53.1045 67.428 53.1045 67.764C53.1045 68.028 53.2005 68.25 53.3925 68.43C53.5845 68.61 53.8185 68.754 54.0945 68.862C54.3705 68.958 54.7785 69.084 55.3185 69.24C56.0385 69.432 56.6265 69.63 57.0825 69.834C57.5505 70.026 57.9525 70.314 58.2885 70.698C58.6245 71.082 58.7985 71.592 58.8105 72.228C58.8105 72.792 58.6545 73.296 58.3425 73.74C58.0305 74.184 57.5865 74.532 57.0105 74.784C56.4465 75.036 55.7805 75.162 55.0125 75.162ZM70.1177 69.798C70.1177 70.17 70.0937 70.506 70.0457 70.806H62.4677C62.5277 71.598 62.8217 72.234 63.3497 72.714C63.8777 73.194 64.5257 73.434 65.2937 73.434C66.3977 73.434 67.1777 72.972 67.6337 72.048H69.8477C69.5477 72.96 69.0017 73.71 68.2097 74.298C67.4297 74.874 66.4577 75.162 65.2937 75.162C64.3457 75.162 63.4937 74.952 62.7377 74.532C61.9937 74.1 61.4057 73.5 60.9737 72.732C60.5537 71.952 60.3437 71.052 60.3437 70.032C60.3437 69.012 60.5477 68.118 60.9557 67.35C61.3757 66.57 61.9577 65.97 62.7017 65.55C63.4577 65.13 64.3217 64.92 65.2937 64.92C66.2297 64.92 67.0637 65.124 67.7957 65.532C68.5277 65.94 69.0977 66.516 69.5057 67.26C69.9137 67.992 70.1177 68.838 70.1177 69.798ZM67.9757 69.15C67.9637 68.394 67.6937 67.788 67.1657 67.332C66.6377 66.876 65.9837 66.648 65.2037 66.648C64.4957 66.648 63.8897 66.876 63.3857 67.332C62.8817 67.776 62.5817 68.382 62.4857 69.15H67.9757ZM77.1411 64.92C77.9211 64.92 78.6171 65.082 79.2291 65.406C79.8531 65.73 80.3391 66.21 80.6871 66.846C81.0351 67.482 81.2091 68.25 81.2091 69.15V75H79.1751V69.456C79.1751 68.568 78.9531 67.89 78.5091 67.422C78.0651 66.942 77.4591 66.702 76.6911 66.702C75.9231 66.702 75.3111 66.942 74.8551 67.422C74.4111 67.89 74.1891 68.568 74.1891 69.456V75H72.1371V65.082H74.1891V66.216C74.5251 65.808 74.9511 65.49 75.4671 65.262C75.9951 65.034 76.5531 64.92 77.1411 64.92ZM73.8831 64.056C73.9791 63.36 74.2071 62.838 74.5671 62.49C74.9271 62.13 75.3771 61.95 75.9171 61.95C76.1451 61.95 76.3431 61.986 76.5111 62.058C76.6791 62.13 76.8831 62.238 77.1231 62.382C77.3031 62.502 77.4531 62.592 77.5731 62.652C77.7051 62.712 77.8491 62.742 78.0051 62.742C78.2091 62.742 78.3771 62.682 78.5091 62.562C78.6531 62.43 78.7431 62.238 78.7791 61.986H79.9311C79.8351 62.682 79.6071 63.21 79.2471 63.57C78.8871 63.918 78.4371 64.092 77.8971 64.092C77.6691 64.092 77.4651 64.056 77.2851 63.984C77.1051 63.9 76.9071 63.786 76.6911 63.642C76.4751 63.51 76.3071 63.42 76.1871 63.372C76.0791 63.312 75.9531 63.282 75.8091 63.282C75.6051 63.282 75.4311 63.348 75.2871 63.48C75.1551 63.612 75.0711 63.804 75.0351 64.056H73.8831ZM88.1286 75.162C87.1926 75.162 86.3466 74.952 85.5906 74.532C84.8346 74.1 84.2406 73.5 83.8086 72.732C83.3766 71.952 83.1606 71.052 83.1606 70.032C83.1606 69.024 83.3826 68.13 83.8266 67.35C84.2706 66.57 84.8766 65.97 85.6446 65.55C86.4126 65.13 87.2706 64.92 88.2186 64.92C89.1666 64.92 90.0246 65.13 90.7926 65.55C91.5606 65.97 92.1666 66.57 92.6106 67.35C93.0546 68.13 93.2766 69.024 93.2766 70.032C93.2766 71.04 93.0486 71.934 92.5926 72.714C92.1366 73.494 91.5126 74.1 90.7206 74.532C89.9406 74.952 89.0766 75.162 88.1286 75.162ZM88.1286 73.38C88.6566 73.38 89.1486 73.254 89.6046 73.002C90.0726 72.75 90.4506 72.372 90.7386 71.868C91.0266 71.364 91.1706 70.752 91.1706 70.032C91.1706 69.312 91.0326 68.706 90.7566 68.214C90.4806 67.71 90.1146 67.332 89.6586 67.08C89.2026 66.828 88.7106 66.702 88.1826 66.702C87.6546 66.702 87.1626 66.828 86.7066 67.08C86.2626 67.332 85.9086 67.71 85.6446 68.214C85.3806 68.706 85.2486 69.312 85.2486 70.032C85.2486 71.1 85.5186 71.928 86.0586 72.516C86.6106 73.092 87.3006 73.38 88.1286 73.38ZM113.157 62.49V75H111.105V66.432L107.289 75H105.867L102.033 66.432V75H99.9809V62.49H102.195L106.587 72.3L110.961 62.49H113.157ZM124.836 65.082V75H122.784V73.83C122.46 74.238 122.034 74.562 121.506 74.802C120.99 75.03 120.438 75.144 119.85 75.144C119.07 75.144 118.368 74.982 117.744 74.658C117.132 74.334 116.646 73.854 116.286 73.218C115.938 72.582 115.764 71.814 115.764 70.914V65.082H117.798V70.608C117.798 71.496 118.02 72.18 118.464 72.66C118.908 73.128 119.514 73.362 120.282 73.362C121.05 73.362 121.656 73.128 122.1 72.66C122.556 72.18 122.784 71.496 122.784 70.608V65.082H124.836ZM129.595 61.68V75H127.543V61.68H129.595ZM134.683 66.756V72.246C134.683 72.618 134.767 72.888 134.935 73.056C135.115 73.212 135.415 73.29 135.835 73.29H137.095V75H135.475C134.551 75 133.843 74.784 133.351 74.352C132.859 73.92 132.613 73.218 132.613 72.246V66.756H131.443V65.082H132.613V62.616H134.683V65.082H137.095V66.756H134.683ZM140.031 63.768C139.659 63.768 139.347 63.642 139.095 63.39C138.843 63.138 138.717 62.826 138.717 62.454C138.717 62.082 138.843 61.77 139.095 61.518C139.347 61.266 139.659 61.14 140.031 61.14C140.391 61.14 140.697 61.266 140.949 61.518C141.201 61.77 141.327 62.082 141.327 62.454C141.327 62.826 141.201 63.138 140.949 63.39C140.697 63.642 140.391 63.768 140.031 63.768ZM141.039 65.082V75H138.987V65.082H141.039ZM155.739 64.92C156.519 64.92 157.215 65.082 157.827 65.406C158.451 65.73 158.937 66.21 159.285 66.846C159.645 67.482 159.825 68.25 159.825 69.15V75H157.791V69.456C157.791 68.568 157.569 67.89 157.125 67.422C156.681 66.942 156.075 66.702 155.307 66.702C154.539 66.702 153.927 66.942 153.471 67.422C153.027 67.89 152.805 68.568 152.805 69.456V75H150.771V69.456C150.771 68.568 150.549 67.89 150.105 67.422C149.661 66.942 149.055 66.702 148.287 66.702C147.519 66.702 146.907 66.942 146.451 67.422C146.007 67.89 145.785 68.568 145.785 69.456V75H143.733V65.082H145.785V66.216C146.121 65.808 146.547 65.49 147.063 65.262C147.579 65.034 148.131 64.92 148.719 64.92C149.511 64.92 150.219 65.088 150.843 65.424C151.467 65.76 151.947 66.246 152.283 66.882C152.583 66.282 153.051 65.808 153.687 65.46C154.323 65.1 155.007 64.92 155.739 64.92ZM171.526 69.798C171.526 70.17 171.502 70.506 171.454 70.806H163.876C163.936 71.598 164.23 72.234 164.758 72.714C165.286 73.194 165.934 73.434 166.702 73.434C167.806 73.434 168.586 72.972 169.042 72.048H171.256C170.956 72.96 170.41 73.71 169.618 74.298C168.838 74.874 167.866 75.162 166.702 75.162C165.754 75.162 164.902 74.952 164.146 74.532C163.402 74.1 162.814 73.5 162.382 72.732C161.962 71.952 161.752 71.052 161.752 70.032C161.752 69.012 161.956 68.118 162.364 67.35C162.784 66.57 163.366 65.97 164.11 65.55C164.866 65.13 165.73 64.92 166.702 64.92C167.638 64.92 168.472 65.124 169.204 65.532C169.936 65.94 170.506 66.516 170.914 67.26C171.322 67.992 171.526 68.838 171.526 69.798ZM169.384 69.15C169.372 68.394 169.102 67.788 168.574 67.332C168.046 66.876 167.392 66.648 166.612 66.648C165.904 66.648 165.298 66.876 164.794 67.332C164.29 67.776 163.99 68.382 163.894 69.15H169.384ZM172.861 69.996C172.861 69 173.065 68.118 173.473 67.35C173.893 66.582 174.457 65.988 175.165 65.568C175.885 65.136 176.683 64.92 177.559 64.92C178.207 64.92 178.843 65.064 179.467 65.352C180.103 65.628 180.607 66 180.979 66.468V61.68H183.049V75H180.979V73.506C180.643 73.986 180.175 74.382 179.575 74.694C178.987 75.006 178.309 75.162 177.541 75.162C176.677 75.162 175.885 74.946 175.165 74.514C174.457 74.07 173.893 73.458 173.473 72.678C173.065 71.886 172.861 70.992 172.861 69.996ZM180.979 70.032C180.979 69.348 180.835 68.754 180.547 68.25C180.271 67.746 179.905 67.362 179.449 67.098C178.993 66.834 178.501 66.702 177.973 66.702C177.445 66.702 176.953 66.834 176.497 67.098C176.041 67.35 175.669 67.728 175.381 68.232C175.105 68.724 174.967 69.312 174.967 69.996C174.967 70.68 175.105 71.28 175.381 71.796C175.669 72.312 176.041 72.708 176.497 72.984C176.965 73.248 177.457 73.38 177.973 73.38C178.501 73.38 178.993 73.248 179.449 72.984C179.905 72.72 180.271 72.336 180.547 71.832C180.835 71.316 180.979 70.716 180.979 70.032ZM186.789 63.768C186.417 63.768 186.105 63.642 185.853 63.39C185.601 63.138 185.475 62.826 185.475 62.454C185.475 62.082 185.601 61.77 185.853 61.518C186.105 61.266 186.417 61.14 186.789 61.14C187.149 61.14 187.455 61.266 187.707 61.518C187.959 61.77 188.085 62.082 188.085 62.454C188.085 62.826 187.959 63.138 187.707 63.39C187.455 63.642 187.149 63.768 186.789 63.768ZM187.797 65.082V75H185.745V65.082H187.797ZM189.807 69.996C189.807 69 190.011 68.118 190.419 67.35C190.839 66.582 191.403 65.988 192.111 65.568C192.831 65.136 193.623 64.92 194.487 64.92C195.267 64.92 195.945 65.076 196.521 65.388C197.109 65.688 197.577 66.066 197.925 66.522V65.082H199.995V75H197.925V73.524C197.577 73.992 197.103 74.382 196.503 74.694C195.903 75.006 195.219 75.162 194.451 75.162C193.599 75.162 192.819 74.946 192.111 74.514C191.403 74.07 190.839 73.458 190.419 72.678C190.011 71.886 189.807 70.992 189.807 69.996ZM197.925 70.032C197.925 69.348 197.781 68.754 197.493 68.25C197.217 67.746 196.851 67.362 196.395 67.098C195.939 66.834 195.447 66.702 194.919 66.702C194.391 66.702 193.899 66.834 193.443 67.098C192.987 67.35 192.615 67.728 192.327 68.232C192.051 68.724 191.913 69.312 191.913 69.996C191.913 70.68 192.051 71.28 192.327 71.796C192.615 72.312 192.987 72.708 193.443 72.984C193.911 73.248 194.403 73.38 194.919 73.38C195.447 73.38 195.939 73.248 196.395 72.984C196.851 72.72 197.217 72.336 197.493 71.832C197.781 71.316 197.925 70.716 197.925 70.032ZM204.742 61.68V75H202.69V61.68H204.742ZM4.302 89.454L2.898 97.374C2.838 97.734 2.808 98.028 2.808 98.256C2.808 99.072 3.036 99.678 3.492 100.074C3.948 100.47 4.584 100.668 5.4 100.668C6.372 100.668 7.176 100.398 7.812 99.858C8.448 99.306 8.868 98.478 9.072 97.374L10.476 89.454H12.114L10.71 97.374C10.53 98.418 10.164 99.3 9.612 100.02C9.072 100.728 8.412 101.256 7.632 101.604C6.852 101.952 6.018 102.126 5.13 102.126C3.942 102.126 2.982 101.82 2.25 101.208C1.518 100.596 1.152 99.696 1.152 98.508C1.152 98.148 1.188 97.77 1.26 97.374L2.664 89.454H4.302ZM19.2025 91.956C20.2225 91.956 21.0385 92.232 21.6505 92.784C22.2625 93.324 22.5685 94.116 22.5685 95.16C22.5685 95.544 22.5385 95.886 22.4785 96.186L21.4525 102H19.8325L20.8225 96.42C20.8705 96.168 20.8945 95.904 20.8945 95.628C20.8945 94.896 20.6905 94.338 20.2825 93.954C19.8865 93.57 19.3285 93.378 18.6085 93.378C17.7445 93.378 17.0065 93.648 16.3945 94.188C15.7945 94.728 15.4045 95.514 15.2245 96.546V96.51L14.2525 102H12.6145L14.3605 92.136H15.9985L15.7465 93.558C16.1545 93.042 16.6645 92.646 17.2765 92.37C17.8885 92.094 18.5305 91.956 19.2025 91.956ZM26.9902 90.534C26.7262 90.534 26.5042 90.45 26.3242 90.282C26.1562 90.102 26.0722 89.88 26.0722 89.616C26.0722 89.256 26.2042 88.95 26.4682 88.698C26.7322 88.434 27.0382 88.302 27.3862 88.302C27.6622 88.302 27.8842 88.386 28.0522 88.554C28.2202 88.722 28.3042 88.944 28.3042 89.22C28.3042 89.58 28.1722 89.892 27.9082 90.156C27.6442 90.408 27.3382 90.534 26.9902 90.534ZM27.5122 92.136L25.7662 102H24.1282L25.8742 92.136H27.5122ZM32.4998 100.452L37.0358 92.136H38.7998L33.1838 102H31.2578L29.1338 92.136H30.8978L32.4998 100.452ZM44.6777 91.974C45.5057 91.974 46.2197 92.136 46.8197 92.46C47.4317 92.772 47.8937 93.216 48.2057 93.792C48.5297 94.356 48.6917 95.004 48.6917 95.736C48.6917 95.988 48.6617 96.294 48.6017 96.654C48.5537 96.966 48.4757 97.29 48.3677 97.626H40.4837C40.4597 97.866 40.4477 98.04 40.4477 98.148C40.4477 98.976 40.6937 99.624 41.1857 100.092C41.6897 100.548 42.3437 100.776 43.1477 100.776C43.8557 100.776 44.4737 100.614 45.0017 100.29C45.5417 99.954 45.9497 99.51 46.2257 98.958H47.9897C47.5577 99.906 46.8917 100.68 45.9917 101.28C45.1037 101.868 44.0717 102.162 42.8957 102.162C41.6597 102.162 40.6637 101.808 39.9077 101.1C39.1637 100.38 38.7917 99.402 38.7917 98.166C38.7917 97.818 38.8277 97.446 38.8997 97.05C39.0797 96.03 39.4457 95.136 39.9977 94.368C40.5497 93.6 41.2277 93.012 42.0317 92.604C42.8477 92.184 43.7297 91.974 44.6777 91.974ZM46.9457 96.438C46.9817 96.198 46.9997 95.976 46.9997 95.772C46.9997 95.004 46.7537 94.41 46.2617 93.99C45.7817 93.57 45.1517 93.36 44.3717 93.36C43.5317 93.36 42.7697 93.636 42.0857 94.188C41.4017 94.728 40.9397 95.478 40.6997 96.438H46.9457ZM52.8698 94.008C53.2658 93.36 53.7638 92.856 54.3638 92.496C54.9638 92.136 55.6478 91.956 56.4158 91.956L56.1098 93.648H55.6778C54.8258 93.648 54.1118 93.876 53.5358 94.332C52.9718 94.788 52.5938 95.556 52.4018 96.636L51.4478 102H49.8098L51.5558 92.136H53.1938L52.8698 94.008ZM59.9986 102.162C58.9666 102.162 58.1206 101.916 57.4606 101.424C56.8006 100.932 56.4706 100.272 56.4706 99.444C56.4706 99.288 56.4766 99.174 56.4886 99.102H58.0906C58.0426 99.618 58.1926 100.038 58.5406 100.362C58.9006 100.686 59.4166 100.848 60.0886 100.848C60.7606 100.848 61.3006 100.722 61.7086 100.47C62.1286 100.206 62.3386 99.84 62.3386 99.372C62.3386 98.976 62.1706 98.664 61.8346 98.436C61.4986 98.208 60.9826 97.962 60.2866 97.698C59.6746 97.47 59.1706 97.254 58.7746 97.05C58.3786 96.846 58.0426 96.564 57.7666 96.204C57.4906 95.832 57.3526 95.364 57.3526 94.8C57.3526 94.248 57.5086 93.756 57.8206 93.324C58.1446 92.892 58.5886 92.562 59.1526 92.334C59.7286 92.094 60.3826 91.974 61.1146 91.974C62.1226 91.974 62.9506 92.226 63.5986 92.73C64.2466 93.234 64.5706 93.894 64.5706 94.71C64.5706 94.866 64.5646 94.986 64.5526 95.07H62.9866L63.0046 94.854C63.0046 94.374 62.8186 93.996 62.4466 93.72C62.0866 93.432 61.6066 93.288 61.0066 93.288C60.4186 93.288 59.9326 93.42 59.5486 93.684C59.1766 93.948 58.9906 94.302 58.9906 94.746C58.9906 95.166 59.1646 95.496 59.5126 95.736C59.8606 95.976 60.4006 96.24 61.1326 96.528C61.7446 96.768 62.2366 96.99 62.6086 97.194C62.9806 97.386 63.2986 97.656 63.5626 98.004C63.8266 98.352 63.9586 98.79 63.9586 99.318C63.9586 99.894 63.7846 100.398 63.4366 100.83C63.1006 101.262 62.6326 101.592 62.0326 101.82C61.4326 102.048 60.7546 102.162 59.9986 102.162ZM68.7909 90.534C68.5269 90.534 68.3049 90.45 68.1249 90.282C67.9569 90.102 67.8729 89.88 67.8729 89.616C67.8729 89.256 68.0049 88.95 68.2689 88.698C68.5329 88.434 68.8389 88.302 69.1869 88.302C69.4629 88.302 69.6849 88.386 69.8529 88.554C70.0209 88.722 70.1049 88.944 70.1049 89.22C70.1049 89.58 69.9729 89.892 69.7089 90.156C69.4449 90.408 69.1389 90.534 68.7909 90.534ZM69.3129 92.136L67.5669 102H65.9289L67.6749 92.136H69.3129ZM70.6106 97.032C70.7906 96.024 71.1506 95.142 71.6906 94.386C72.2426 93.618 72.9146 93.024 73.7066 92.604C74.4986 92.184 75.3386 91.974 76.2266 91.974C76.9826 91.974 77.6606 92.154 78.2606 92.514C78.8606 92.862 79.2866 93.324 79.5386 93.9L80.4566 88.68H82.1126L79.7546 102H78.0986L78.4406 100.146C78.0206 100.734 77.4566 101.22 76.7486 101.604C76.0406 101.976 75.2606 102.162 74.4086 102.162C73.6406 102.162 72.9626 102 72.3746 101.676C71.7866 101.34 71.3246 100.866 70.9886 100.254C70.6646 99.642 70.5026 98.934 70.5026 98.13C70.5026 97.77 70.5386 97.404 70.6106 97.032ZM78.9806 97.05C79.0286 96.798 79.0526 96.528 79.0526 96.24C79.0526 95.364 78.7886 94.674 78.2606 94.17C77.7446 93.654 77.0846 93.396 76.2806 93.396C75.6686 93.396 75.0806 93.54 74.5166 93.828C73.9646 94.116 73.4906 94.536 73.0946 95.088C72.6986 95.64 72.4346 96.288 72.3026 97.032C72.2546 97.284 72.2306 97.56 72.2306 97.86C72.2306 98.748 72.4886 99.45 73.0046 99.966C73.5206 100.47 74.1806 100.722 74.9846 100.722C75.5966 100.722 76.1786 100.578 76.7306 100.29C77.2946 99.99 77.7746 99.564 78.1706 99.012C78.5786 98.448 78.8486 97.794 78.9806 97.05ZM82.7747 97.032C82.9547 96.024 83.3147 95.142 83.8547 94.386C84.4067 93.618 85.0727 93.024 85.8527 92.604C86.6447 92.184 87.4847 91.974 88.3727 91.974C89.2367 91.974 89.9507 92.16 90.5147 92.532C91.0787 92.904 91.4687 93.372 91.6847 93.936L92.0087 92.136H93.6647L91.9187 102H90.2627L90.6047 100.164C90.1727 100.74 89.6027 101.22 88.8947 101.604C88.1867 101.976 87.4067 102.162 86.5547 102.162C85.7867 102.162 85.1087 102 84.5207 101.676C83.9327 101.34 83.4767 100.866 83.1527 100.254C82.8287 99.642 82.6667 98.934 82.6667 98.13C82.6667 97.77 82.7027 97.404 82.7747 97.032ZM91.1447 97.05C91.1927 96.798 91.2167 96.528 91.2167 96.24C91.2167 95.364 90.9527 94.674 90.4247 94.17C89.9087 93.654 89.2487 93.396 88.4447 93.396C87.8327 93.396 87.2447 93.54 86.6807 93.828C86.1287 94.116 85.6547 94.536 85.2587 95.088C84.8627 95.64 84.5987 96.288 84.4667 97.032C84.4187 97.284 84.3947 97.56 84.3947 97.86C84.3947 98.748 84.6527 99.45 85.1687 99.966C85.6847 100.47 86.3447 100.722 87.1487 100.722C87.7607 100.722 88.3427 100.578 88.8947 100.29C89.4587 99.99 89.9387 99.564 90.3347 99.012C90.7427 98.448 91.0127 97.794 91.1447 97.05ZM94.9388 97.032C95.1188 96.024 95.4788 95.142 96.0188 94.386C96.5708 93.618 97.2428 93.024 98.0348 92.604C98.8268 92.184 99.6668 91.974 100.555 91.974C101.311 91.974 101.989 92.154 102.589 92.514C103.189 92.862 103.615 93.324 103.867 93.9L104.785 88.68H106.441L104.083 102H102.427L102.769 100.146C102.349 100.734 101.785 101.22 101.077 101.604C100.369 101.976 99.5888 102.162 98.7368 102.162C97.9688 102.162 97.2908 102 96.7028 101.676C96.1148 101.34 95.6528 100.866 95.3168 100.254C94.9928 99.642 94.8308 98.934 94.8308 98.13C94.8308 97.77 94.8668 97.404 94.9388 97.032ZM103.309 97.05C103.357 96.798 103.381 96.528 103.381 96.24C103.381 95.364 103.117 94.674 102.589 94.17C102.073 93.654 101.413 93.396 100.609 93.396C99.9968 93.396 99.4088 93.54 98.8447 93.828C98.2928 94.116 97.8188 94.536 97.4228 95.088C97.0268 95.64 96.7628 96.288 96.6308 97.032C96.5828 97.284 96.5588 97.56 96.5588 97.86C96.5588 98.748 96.8168 99.45 97.3328 99.966C97.8488 100.47 98.5088 100.722 99.3128 100.722C99.9248 100.722 100.507 100.578 101.059 100.29C101.623 99.99 102.103 99.564 102.499 99.012C102.907 98.448 103.177 97.794 103.309 97.05ZM122.076 102H120.438L115.632 92.01L113.85 102H112.212L114.444 89.436H116.082L120.906 99.408L122.67 89.436H124.308L122.076 102ZM125.12 97.032C125.3 96.024 125.66 95.142 126.2 94.386C126.752 93.618 127.418 93.024 128.198 92.604C128.99 92.184 129.83 91.974 130.718 91.974C131.582 91.974 132.296 92.16 132.86 92.532C133.424 92.904 133.814 93.372 134.03 93.936L134.354 92.136H136.01L134.264 102H132.608L132.95 100.164C132.518 100.74 131.948 101.22 131.24 101.604C130.532 101.976 129.752 102.162 128.9 102.162C128.132 102.162 127.454 102 126.866 101.676C126.278 101.34 125.822 100.866 125.498 100.254C125.174 99.642 125.012 98.934 125.012 98.13C125.012 97.77 125.048 97.404 125.12 97.032ZM133.49 97.05C133.538 96.798 133.562 96.528 133.562 96.24C133.562 95.364 133.298 94.674 132.77 94.17C132.254 93.654 131.594 93.396 130.79 93.396C130.178 93.396 129.59 93.54 129.026 93.828C128.474 94.116 128 94.536 127.604 95.088C127.208 95.64 126.944 96.288 126.812 97.032C126.764 97.284 126.74 97.56 126.74 97.86C126.74 98.748 126.998 99.45 127.514 99.966C128.03 100.47 128.69 100.722 129.494 100.722C130.106 100.722 130.688 100.578 131.24 100.29C131.804 99.99 132.284 99.564 132.68 99.012C133.088 98.448 133.358 97.794 133.49 97.05ZM137.284 97.05C137.464 96.03 137.824 95.142 138.364 94.386C138.916 93.618 139.594 93.024 140.398 92.604C141.202 92.184 142.072 91.974 143.008 91.974C144.22 91.974 145.162 92.268 145.834 92.856C146.518 93.444 146.896 94.26 146.968 95.304H145.204C145.144 94.704 144.898 94.23 144.466 93.882C144.046 93.534 143.476 93.36 142.756 93.36C141.82 93.36 141.004 93.684 140.308 94.332C139.624 94.968 139.18 95.874 138.976 97.05C138.916 97.446 138.886 97.776 138.886 98.04C138.886 98.916 139.12 99.594 139.588 100.074C140.056 100.542 140.68 100.776 141.46 100.776C142.18 100.776 142.804 100.608 143.332 100.272C143.872 99.936 144.286 99.456 144.574 98.832H146.338C145.906 99.84 145.24 100.65 144.34 101.262C143.44 101.862 142.396 102.162 141.208 102.162C139.972 102.162 138.988 101.808 138.256 101.1C137.536 100.392 137.176 99.426 137.176 98.202C137.176 97.83 137.212 97.446 137.284 97.05ZM150.828 90.534C150.564 90.534 150.342 90.45 150.162 90.282C149.994 90.102 149.91 89.88 149.91 89.616C149.91 89.256 150.042 88.95 150.306 88.698C150.57 88.434 150.876 88.302 151.224 88.302C151.5 88.302 151.722 88.386 151.89 88.554C152.058 88.722 152.142 88.944 152.142 89.22C152.142 89.58 152.01 89.892 151.746 90.156C151.482 90.408 151.176 90.534 150.828 90.534ZM151.35 92.136L149.604 102H147.966L149.712 92.136H151.35ZM156.734 102.162C155.906 102.162 155.174 101.994 154.538 101.658C153.914 101.31 153.428 100.83 153.08 100.218C152.732 99.594 152.558 98.874 152.558 98.058C152.558 96.942 152.816 95.922 153.332 94.998C153.848 94.062 154.556 93.324 155.456 92.784C156.368 92.244 157.382 91.974 158.498 91.974C159.326 91.974 160.058 92.148 160.694 92.496C161.342 92.832 161.84 93.312 162.188 93.936C162.548 94.548 162.728 95.268 162.728 96.096C162.728 97.212 162.464 98.232 161.936 99.156C161.408 100.08 160.688 100.812 159.776 101.352C158.864 101.892 157.85 102.162 156.734 102.162ZM156.932 100.776C157.712 100.776 158.414 100.566 159.038 100.146C159.662 99.714 160.148 99.15 160.496 98.454C160.856 97.746 161.036 96.99 161.036 96.186C161.036 95.274 160.772 94.578 160.244 94.098C159.716 93.606 159.056 93.36 158.264 93.36C157.484 93.36 156.788 93.576 156.176 94.008C155.564 94.428 155.09 94.992 154.754 95.7C154.418 96.408 154.25 97.17 154.25 97.986C154.25 98.874 154.502 99.564 155.006 100.056C155.51 100.536 156.152 100.776 156.932 100.776ZM170.497 91.956C171.517 91.956 172.333 92.232 172.945 92.784C173.557 93.324 173.863 94.116 173.863 95.16C173.863 95.544 173.833 95.886 173.773 96.186L172.747 102H171.127L172.117 96.42C172.165 96.168 172.189 95.904 172.189 95.628C172.189 94.896 171.985 94.338 171.577 93.954C171.181 93.57 170.623 93.378 169.903 93.378C169.039 93.378 168.301 93.648 167.689 94.188C167.089 94.728 166.699 95.514 166.519 96.546V96.51L165.547 102H163.909L165.655 92.136H167.293L167.041 93.558C167.449 93.042 167.959 92.646 168.571 92.37C169.183 92.094 169.825 91.956 170.497 91.956ZM175.675 97.032C175.855 96.024 176.215 95.142 176.755 94.386C177.307 93.618 177.973 93.024 178.753 92.604C179.545 92.184 180.385 91.974 181.273 91.974C182.137 91.974 182.851 92.16 183.415 92.532C183.979 92.904 184.369 93.372 184.585 93.936L184.909 92.136H186.565L184.819 102H183.163L183.505 100.164C183.073 100.74 182.503 101.22 181.795 101.604C181.087 101.976 180.307 102.162 179.455 102.162C178.687 102.162 178.009 102 177.421 101.676C176.833 101.34 176.377 100.866 176.053 100.254C175.729 99.642 175.567 98.934 175.567 98.13C175.567 97.77 175.603 97.404 175.675 97.032ZM184.045 97.05C184.093 96.798 184.117 96.528 184.117 96.24C184.117 95.364 183.853 94.674 183.325 94.17C182.809 93.654 182.149 93.396 181.345 93.396C180.733 93.396 180.145 93.54 179.581 93.828C179.029 94.116 178.555 94.536 178.159 95.088C177.763 95.64 177.499 96.288 177.367 97.032C177.319 97.284 177.295 97.56 177.295 97.86C177.295 98.748 177.553 99.45 178.069 99.966C178.585 100.47 179.245 100.722 180.049 100.722C180.661 100.722 181.243 100.578 181.795 100.29C182.359 99.99 182.839 99.564 183.235 99.012C183.643 98.448 183.913 97.794 184.045 97.05ZM191.583 88.68L189.225 102H187.587L189.945 88.68H191.583ZM197.63 97.032C197.81 96.024 198.17 95.142 198.71 94.386C199.262 93.618 199.934 93.024 200.726 92.604C201.518 92.184 202.358 91.974 203.246 91.974C204.002 91.974 204.68 92.154 205.28 92.514C205.88 92.862 206.306 93.324 206.558 93.9L207.476 88.68H209.132L206.774 102H205.118L205.46 100.146C205.04 100.734 204.476 101.22 203.768 101.604C203.06 101.976 202.28 102.162 201.428 102.162C200.66 102.162 199.982 102 199.394 101.676C198.806 101.34 198.344 100.866 198.008 100.254C197.684 99.642 197.522 98.934 197.522 98.13C197.522 97.77 197.558 97.404 197.63 97.032ZM206 97.05C206.048 96.798 206.072 96.528 206.072 96.24C206.072 95.364 205.808 94.674 205.28 94.17C204.764 93.654 204.104 93.396 203.3 93.396C202.688 93.396 202.1 93.54 201.536 93.828C200.984 94.116 200.51 94.536 200.114 95.088C199.718 95.64 199.454 96.288 199.322 97.032C199.274 97.284 199.25 97.56 199.25 97.86C199.25 98.748 199.508 99.45 200.024 99.966C200.54 100.47 201.2 100.722 202.004 100.722C202.616 100.722 203.198 100.578 203.75 100.29C204.314 99.99 204.794 99.564 205.19 99.012C205.598 98.448 205.868 97.794 206 97.05ZM215.572 91.974C216.4 91.974 217.114 92.136 217.714 92.46C218.326 92.772 218.788 93.216 219.1 93.792C219.424 94.356 219.586 95.004 219.586 95.736C219.586 95.988 219.556 96.294 219.496 96.654C219.448 96.966 219.37 97.29 219.262 97.626H211.378C211.354 97.866 211.342 98.04 211.342 98.148C211.342 98.976 211.588 99.624 212.08 100.092C212.584 100.548 213.238 100.776 214.042 100.776C214.75 100.776 215.368 100.614 215.896 100.29C216.436 99.954 216.844 99.51 217.12 98.958H218.884C218.452 99.906 217.786 100.68 216.886 101.28C215.998 101.868 214.966 102.162 213.79 102.162C212.554 102.162 211.558 101.808 210.802 101.1C210.058 100.38 209.686 99.402 209.686 98.166C209.686 97.818 209.722 97.446 209.794 97.05C209.974 96.03 210.34 95.136 210.892 94.368C211.444 93.6 212.122 93.012 212.926 92.604C213.742 92.184 214.624 91.974 215.572 91.974ZM217.84 96.438C217.876 96.198 217.894 95.976 217.894 95.772C217.894 95.004 217.648 94.41 217.156 93.99C216.676 93.57 216.046 93.36 215.266 93.36C214.426 93.36 213.664 93.636 212.98 94.188C212.296 94.728 211.834 95.478 211.594 96.438H217.84ZM227.938 100.74H232.33L232.096 102H226.066L228.298 89.454H229.936L227.938 100.74ZM234.087 97.032C234.267 96.024 234.627 95.142 235.167 94.386C235.719 93.618 236.385 93.024 237.165 92.604C237.957 92.184 238.797 91.974 239.685 91.974C240.549 91.974 241.263 92.16 241.827 92.532C242.391 92.904 242.781 93.372 242.997 93.936L243.321 92.136H244.977L243.231 102H241.575L241.917 100.164C241.485 100.74 240.915 101.22 240.207 101.604C239.499 101.976 238.719 102.162 237.867 102.162C237.099 102.162 236.421 102 235.833 101.676C235.245 101.34 234.789 100.866 234.465 100.254C234.141 99.642 233.979 98.934 233.979 98.13C233.979 97.77 234.015 97.404 234.087 97.032ZM242.457 97.05C242.505 96.798 242.529 96.528 242.529 96.24C242.529 95.364 242.265 94.674 241.737 94.17C241.221 93.654 240.561 93.396 239.757 93.396C239.145 93.396 238.557 93.54 237.993 93.828C237.441 94.116 236.967 94.536 236.571 95.088C236.175 95.64 235.911 96.288 235.779 97.032C235.731 97.284 235.707 97.56 235.707 97.86C235.707 98.748 235.965 99.45 236.481 99.966C236.997 100.47 237.657 100.722 238.461 100.722C239.073 100.722 239.655 100.578 240.207 100.29C240.771 99.99 241.251 99.564 241.647 99.012C242.055 98.448 242.325 97.794 242.457 97.05ZM261.315 93.126C261.135 94.17 260.625 95.04 259.785 95.736C258.945 96.42 257.799 96.762 256.347 96.762H253.935L252.999 102H251.361L253.593 89.454H257.643C258.891 89.454 259.827 89.724 260.451 90.264C261.075 90.792 261.387 91.5 261.387 92.388C261.387 92.544 261.363 92.79 261.315 93.126ZM256.581 95.466C257.481 95.466 258.183 95.262 258.687 94.854C259.191 94.434 259.509 93.858 259.641 93.126C259.677 92.91 259.695 92.712 259.695 92.532C259.695 91.344 258.933 90.75 257.409 90.75H254.997L254.169 95.466H256.581ZM265.78 88.68L263.422 102H261.784L264.142 88.68H265.78ZM266.466 97.032C266.646 96.024 267.006 95.142 267.546 94.386C268.098 93.618 268.764 93.024 269.544 92.604C270.336 92.184 271.176 91.974 272.064 91.974C272.928 91.974 273.642 92.16 274.206 92.532C274.77 92.904 275.16 93.372 275.376 93.936L275.7 92.136H277.356L275.61 102H273.954L274.296 100.164C273.864 100.74 273.294 101.22 272.586 101.604C271.878 101.976 271.098 102.162 270.246 102.162C269.478 102.162 268.8 102 268.212 101.676C267.624 101.34 267.168 100.866 266.844 100.254C266.52 99.642 266.358 98.934 266.358 98.13C266.358 97.77 266.394 97.404 266.466 97.032ZM274.836 97.05C274.884 96.798 274.908 96.528 274.908 96.24C274.908 95.364 274.644 94.674 274.116 94.17C273.6 93.654 272.94 93.396 272.136 93.396C271.524 93.396 270.936 93.54 270.372 93.828C269.82 94.116 269.346 94.536 268.95 95.088C268.554 95.64 268.29 96.288 268.158 97.032C268.11 97.284 268.086 97.56 268.086 97.86C268.086 98.748 268.344 99.45 268.86 99.966C269.376 100.47 270.036 100.722 270.84 100.722C271.452 100.722 272.034 100.578 272.586 100.29C273.15 99.99 273.63 99.564 274.026 99.012C274.434 98.448 274.704 97.794 274.836 97.05ZM280.862 99.3C280.826 99.48 280.808 99.636 280.808 99.768C280.808 100.068 280.898 100.284 281.078 100.416C281.27 100.548 281.576 100.614 281.996 100.614H283.202L282.95 102H281.474C280.694 102 280.106 101.85 279.71 101.55C279.326 101.25 279.134 100.758 279.134 100.074C279.134 99.81 279.158 99.552 279.206 99.3L280.232 93.486H278.972L279.206 92.136H280.484L280.916 89.652H282.572L282.14 92.136H284.696L284.462 93.486H281.888L280.862 99.3ZM285.187 97.032C285.367 96.024 285.727 95.142 286.267 94.386C286.819 93.618 287.485 93.024 288.265 92.604C289.057 92.184 289.897 91.974 290.785 91.974C291.649 91.974 292.363 92.16 292.927 92.532C293.491 92.904 293.881 93.372 294.097 93.936L294.421 92.136H296.077L294.331 102H292.675L293.017 100.164C292.585 100.74 292.015 101.22 291.307 101.604C290.599 101.976 289.819 102.162 288.967 102.162C288.199 102.162 287.521 102 286.933 101.676C286.345 101.34 285.889 100.866 285.565 100.254C285.241 99.642 285.079 98.934 285.079 98.13C285.079 97.77 285.115 97.404 285.187 97.032ZM293.557 97.05C293.605 96.798 293.629 96.528 293.629 96.24C293.629 95.364 293.365 94.674 292.837 94.17C292.321 93.654 291.661 93.396 290.857 93.396C290.245 93.396 289.657 93.54 289.093 93.828C288.541 94.116 288.067 94.536 287.671 95.088C287.275 95.64 287.011 96.288 286.879 97.032C286.831 97.284 286.807 97.56 286.807 97.86C286.807 98.748 287.065 99.45 287.581 99.966C288.097 100.47 288.757 100.722 289.561 100.722C290.173 100.722 290.755 100.578 291.307 100.29C291.871 99.99 292.351 99.564 292.747 99.012C293.155 98.448 293.425 97.794 293.557 97.05ZM0.918 127.686C2.442 126.462 3.636 125.46 4.5 124.68C5.364 123.888 6.09 123.066 6.678 122.214C7.278 121.35 7.578 120.504 7.578 119.676C7.578 118.896 7.386 118.284 7.002 117.84C6.63 117.384 6.024 117.156 5.184 117.156C4.368 117.156 3.732 117.414 3.276 117.93C2.832 118.434 2.592 119.112 2.556 119.964H0.972C1.02 118.62 1.428 117.582 2.196 116.85C2.964 116.118 3.954 115.752 5.166 115.752C6.402 115.752 7.38 116.094 8.1 116.778C8.832 117.462 9.198 118.404 9.198 119.604C9.198 120.6 8.898 121.572 8.298 122.52C7.71 123.456 7.038 124.284 6.282 125.004C5.526 125.712 4.56 126.54 3.384 127.488H9.576V128.856H0.918V127.686ZM11.4695 122.358C11.4695 120.294 11.8055 118.686 12.4775 117.534C13.1495 116.37 14.3255 115.788 16.0055 115.788C17.6735 115.788 18.8435 116.37 19.5155 117.534C20.1875 118.686 20.5235 120.294 20.5235 122.358C20.5235 124.458 20.1875 126.09 19.5155 127.254C18.8435 128.418 17.6735 129 16.0055 129C14.3255 129 13.1495 128.418 12.4775 127.254C11.8055 126.09 11.4695 124.458 11.4695 122.358ZM18.9035 122.358C18.9035 121.314 18.8315 120.432 18.6875 119.712C18.5555 118.98 18.2735 118.392 17.8415 117.948C17.4215 117.504 16.8095 117.282 16.0055 117.282C15.1895 117.282 14.5655 117.504 14.1335 117.948C13.7135 118.392 13.4315 118.98 13.2875 119.712C13.1555 120.432 13.0895 121.314 13.0895 122.358C13.0895 123.438 13.1555 124.344 13.2875 125.076C13.4315 125.808 13.7135 126.396 14.1335 126.84C14.5655 127.284 15.1895 127.506 16.0055 127.506C16.8095 127.506 17.4215 127.284 17.8415 126.84C18.2735 126.396 18.5555 125.808 18.6875 125.076C18.8315 124.344 18.9035 123.438 18.9035 122.358ZM22.5743 127.686C24.0983 126.462 25.2923 125.46 26.1562 124.68C27.0203 123.888 27.7463 123.066 28.3343 122.214C28.9343 121.35 29.2343 120.504 29.2343 119.676C29.2343 118.896 29.0423 118.284 28.6583 117.84C28.2863 117.384 27.6803 117.156 26.8403 117.156C26.0243 117.156 25.3883 117.414 24.9323 117.93C24.4883 118.434 24.2483 119.112 24.2123 119.964H22.6283C22.6763 118.62 23.0843 117.582 23.8523 116.85C24.6203 116.118 25.6103 115.752 26.8223 115.752C28.0583 115.752 29.0363 116.094 29.7563 116.778C30.4883 117.462 30.8543 118.404 30.8543 119.604C30.8543 120.6 30.5543 121.572 29.9543 122.52C29.3663 123.456 28.6943 124.284 27.9383 125.004C27.1823 125.712 26.2163 126.54 25.0403 127.488H31.2323V128.856H22.5743V127.686ZM33.1258 122.358C33.1258 120.294 33.4618 118.686 34.1338 117.534C34.8058 116.37 35.9818 115.788 37.6618 115.788C39.3298 115.788 40.4998 116.37 41.1718 117.534C41.8438 118.686 42.1798 120.294 42.1798 122.358C42.1798 124.458 41.8438 126.09 41.1718 127.254C40.4998 128.418 39.3298 129 37.6618 129C35.9818 129 34.8058 128.418 34.1338 127.254C33.4618 126.09 33.1258 124.458 33.1258 122.358ZM40.5598 122.358C40.5598 121.314 40.4878 120.432 40.3438 119.712C40.2118 118.98 39.9298 118.392 39.4978 117.948C39.0778 117.504 38.4658 117.282 37.6618 117.282C36.8458 117.282 36.2218 117.504 35.7898 117.948C35.3698 118.392 35.0878 118.98 34.9438 119.712C34.8118 120.432 34.7458 121.314 34.7458 122.358C34.7458 123.438 34.8118 124.344 34.9438 125.076C35.0878 125.808 35.3698 126.396 35.7898 126.84C36.2218 127.284 36.8458 127.506 37.6618 127.506C38.4658 127.506 39.0778 127.284 39.4978 126.84C39.9298 126.396 40.2118 125.808 40.3438 125.076C40.4878 124.344 40.5598 123.438 40.5598 122.358ZM56.3373 121.71V123.096H49.1553V121.71H56.3373ZM63.7422 127.686C65.2662 126.462 66.4602 125.46 67.3242 124.68C68.1882 123.888 68.9142 123.066 69.5022 122.214C70.1022 121.35 70.4022 120.504 70.4022 119.676C70.4022 118.896 70.2102 118.284 69.8262 117.84C69.4542 117.384 68.8482 117.156 68.0082 117.156C67.1922 117.156 66.5562 117.414 66.1002 117.93C65.6562 118.434 65.4162 119.112 65.3802 119.964H63.7962C63.8442 118.62 64.2522 117.582 65.0202 116.85C65.7882 116.118 66.7782 115.752 67.9902 115.752C69.2262 115.752 70.2042 116.094 70.9242 116.778C71.6562 117.462 72.0222 118.404 72.0222 119.604C72.0222 120.6 71.7222 121.572 71.1222 122.52C70.5342 123.456 69.8622 124.284 69.1062 125.004C68.3502 125.712 67.3842 126.54 66.2082 127.488H72.4002V128.856H63.7422V127.686ZM74.2937 122.358C74.2937 120.294 74.6297 118.686 75.3017 117.534C75.9737 116.37 77.1497 115.788 78.8297 115.788C80.4977 115.788 81.6677 116.37 82.3397 117.534C83.0117 118.686 83.3477 120.294 83.3477 122.358C83.3477 124.458 83.0117 126.09 82.3397 127.254C81.6677 128.418 80.4977 129 78.8297 129C77.1497 129 75.9737 128.418 75.3017 127.254C74.6297 126.09 74.2937 124.458 74.2937 122.358ZM81.7277 122.358C81.7277 121.314 81.6557 120.432 81.5117 119.712C81.3797 118.98 81.0977 118.392 80.6657 117.948C80.2457 117.504 79.6337 117.282 78.8297 117.282C78.0137 117.282 77.3897 117.504 76.9577 117.948C76.5377 118.392 76.2557 118.98 76.1117 119.712C75.9797 120.432 75.9137 121.314 75.9137 122.358C75.9137 123.438 75.9797 124.344 76.1117 125.076C76.2557 125.808 76.5377 126.396 76.9577 126.84C77.3897 127.284 78.0137 127.506 78.8297 127.506C79.6337 127.506 80.2457 127.284 80.6657 126.84C81.0977 126.396 81.3797 125.808 81.5117 125.076C81.6557 124.344 81.7277 123.438 81.7277 122.358ZM85.3985 127.686C86.9225 126.462 88.1165 125.46 88.9805 124.68C89.8445 123.888 90.5705 123.066 91.1585 122.214C91.7585 121.35 92.0585 120.504 92.0585 119.676C92.0585 118.896 91.8665 118.284 91.4825 117.84C91.1105 117.384 90.5045 117.156 89.6645 117.156C88.8485 117.156 88.2125 117.414 87.7565 117.93C87.3125 118.434 87.0725 119.112 87.0365 119.964H85.4525C85.5005 118.62 85.9085 117.582 86.6765 116.85C87.4445 116.118 88.4345 115.752 89.6465 115.752C90.8825 115.752 91.8605 116.094 92.5805 116.778C93.3125 117.462 93.6785 118.404 93.6785 119.604C93.6785 120.6 93.3785 121.572 92.7785 122.52C92.1905 123.456 91.5185 124.284 90.7625 125.004C90.0065 125.712 89.0405 126.54 87.8645 127.488H94.0565V128.856H85.3985V127.686ZM95.554 126.102V124.86L101.872 116.112H103.834V124.68H105.634V126.102H103.834V129H102.214V126.102H95.554ZM102.286 117.822L97.444 124.68H102.286V117.822Z" fill="#E2E2FF"/>
</svg>
