<svg width="356" height="307" viewBox="0 0 356 307" fill="none" xmlns="http://www.w3.org/2000/svg">
<path d="M1.204 21.228C1.204 19.324 1.63333 17.616 2.492 16.104C3.35067 14.5733 4.51733 13.3787 5.992 12.52C7.48533 11.6613 9.13733 11.232 10.948 11.232C13.076 11.232 14.9333 11.7453 16.52 12.772C18.1067 13.7987 19.264 15.2547 19.992 17.14H16.94C16.3987 15.964 15.6147 15.0587 14.588 14.424C13.58 13.7893 12.3667 13.472 10.948 13.472C9.58533 13.472 8.36267 13.7893 7.28 14.424C6.19733 15.0587 5.348 15.964 4.732 17.14C4.116 18.2973 3.808 19.66 3.808 21.228C3.808 22.7773 4.116 24.14 4.732 25.316C5.348 26.4733 6.19733 27.3693 7.28 28.004C8.36267 28.6387 9.58533 28.956 10.948 28.956C12.3667 28.956 13.58 28.648 14.588 28.032C15.6147 27.3973 16.3987 26.492 16.94 25.316H19.992C19.264 27.1827 18.1067 28.6293 16.52 29.656C14.9333 30.664 13.076 31.168 10.948 31.168C9.13733 31.168 7.48533 30.748 5.992 29.908C4.51733 29.0493 3.35067 27.864 2.492 26.352C1.63333 24.84 1.204 23.132 1.204 21.228ZM37.3929 15.656V31H34.8449V28.732C34.3596 29.516 33.6782 30.132 32.8009 30.58C31.9422 31.0093 30.9902 31.224 29.9449 31.224C28.7502 31.224 27.6769 30.9813 26.7249 30.496C25.7729 29.992 25.0169 29.2453 24.4569 28.256C23.9156 27.2667 23.6449 26.0627 23.6449 24.644V15.656H26.1649V24.308C26.1649 25.82 26.5476 26.9867 27.3129 27.808C28.0782 28.6107 29.1236 29.012 30.4489 29.012C31.8116 29.012 32.8849 28.592 33.6689 27.752C34.4529 26.912 34.8449 25.6893 34.8449 24.084V15.656H37.3929ZM44.2431 18.148C44.6911 17.2707 45.3257 16.5893 46.1471 16.104C46.9871 15.6187 48.0044 15.376 49.1991 15.376V18.008H48.5271C45.6711 18.008 44.2431 19.5573 44.2431 22.656V31H41.6951V15.656H44.2431V18.148ZM57.5724 31.252C56.3964 31.252 55.3417 31.056 54.4084 30.664C53.475 30.2533 52.7377 29.6933 52.1964 28.984C51.655 28.256 51.3564 27.4253 51.3004 26.492H53.9324C54.007 27.2573 54.3617 27.8827 54.9964 28.368C55.6497 28.8533 56.499 29.096 57.5444 29.096C58.515 29.096 59.2804 28.8813 59.8404 28.452C60.4004 28.0227 60.6804 27.4813 60.6804 26.828C60.6804 26.156 60.3817 25.6613 59.7844 25.344C59.187 25.008 58.263 24.6813 57.0124 24.364C55.8737 24.0653 54.9404 23.7667 54.2124 23.468C53.503 23.1507 52.887 22.6933 52.3644 22.096C51.8604 21.48 51.6084 20.6773 51.6084 19.688C51.6084 18.904 51.8417 18.1853 52.3084 17.532C52.775 16.8787 53.4377 16.3653 54.2964 15.992C55.155 15.6 56.135 15.404 57.2364 15.404C58.935 15.404 60.307 15.8333 61.3524 16.692C62.3977 17.5507 62.9577 18.7267 63.0324 20.22H60.4844C60.4284 19.4173 60.1017 18.7733 59.5044 18.288C58.9257 17.8027 58.1417 17.56 57.1524 17.56C56.2377 17.56 55.5097 17.756 54.9684 18.148C54.427 18.54 54.1564 19.0533 54.1564 19.688C54.1564 20.192 54.315 20.612 54.6324 20.948C54.9684 21.2653 55.379 21.5267 55.8644 21.732C56.3684 21.9187 57.059 22.1333 57.9364 22.376C59.0377 22.6747 59.9337 22.9733 60.6244 23.272C61.315 23.552 61.903 23.9813 62.3884 24.56C62.8924 25.1387 63.1537 25.8947 63.1724 26.828C63.1724 27.668 62.939 28.424 62.4724 29.096C62.0057 29.768 61.343 30.3 60.4844 30.692C59.6444 31.0653 58.6737 31.252 57.5724 31.252ZM73.4613 31.252C72.0239 31.252 70.7173 30.9253 69.5413 30.272C68.3839 29.6187 67.4693 28.6947 66.7973 27.5C66.1439 26.2867 65.8173 24.8867 65.8173 23.3C65.8173 21.732 66.1533 20.3507 66.8253 19.156C67.5159 17.9427 68.4493 17.0187 69.6253 16.384C70.8013 15.7307 72.1173 15.404 73.5733 15.404C75.0293 15.404 76.3453 15.7307 77.5213 16.384C78.6973 17.0187 79.6213 17.9333 80.2933 19.128C80.9839 20.3227 81.3293 21.7133 81.3293 23.3C81.3293 24.8867 80.9746 26.2867 80.2653 27.5C79.5746 28.6947 78.6319 29.6187 77.4373 30.272C76.2426 30.9253 74.9173 31.252 73.4613 31.252ZM73.4613 29.012C74.3759 29.012 75.2346 28.7973 76.0373 28.368C76.8399 27.9387 77.4839 27.2947 77.9693 26.436C78.4733 25.5773 78.7253 24.532 78.7253 23.3C78.7253 22.068 78.4826 21.0227 77.9973 20.164C77.5119 19.3053 76.8773 18.6707 76.0933 18.26C75.3093 17.8307 74.4599 17.616 73.5453 17.616C72.6119 17.616 71.7533 17.8307 70.9693 18.26C70.2039 18.6707 69.5879 19.3053 69.1213 20.164C68.6546 21.0227 68.4213 22.068 68.4213 23.3C68.4213 24.5507 68.6453 25.6053 69.0933 26.464C69.5599 27.3227 70.1759 27.9667 70.9413 28.396C71.7066 28.8067 72.5466 29.012 73.4613 29.012ZM90.1114 31.252C88.9354 31.252 87.8808 31.056 86.9474 30.664C86.0141 30.2533 85.2768 29.6933 84.7354 28.984C84.1941 28.256 83.8954 27.4253 83.8394 26.492H86.4714C86.5461 27.2573 86.9008 27.8827 87.5354 28.368C88.1888 28.8533 89.0381 29.096 90.0834 29.096C91.0541 29.096 91.8194 28.8813 92.3794 28.452C92.9394 28.0227 93.2194 27.4813 93.2194 26.828C93.2194 26.156 92.9208 25.6613 92.3234 25.344C91.7261 25.008 90.8021 24.6813 89.5514 24.364C88.4128 24.0653 87.4794 23.7667 86.7514 23.468C86.0421 23.1507 85.4261 22.6933 84.9034 22.096C84.3994 21.48 84.1474 20.6773 84.1474 19.688C84.1474 18.904 84.3808 18.1853 84.8474 17.532C85.3141 16.8787 85.9768 16.3653 86.8354 15.992C87.6941 15.6 88.6741 15.404 89.7754 15.404C91.4741 15.404 92.8461 15.8333 93.8914 16.692C94.9368 17.5507 95.4968 18.7267 95.5714 20.22H93.0234C92.9674 19.4173 92.6408 18.7733 92.0434 18.288C91.4648 17.8027 90.6808 17.56 89.6914 17.56C88.7768 17.56 88.0488 17.756 87.5074 18.148C86.9661 18.54 86.6954 19.0533 86.6954 19.688C86.6954 20.192 86.8541 20.612 87.1714 20.948C87.5074 21.2653 87.9181 21.5267 88.4034 21.732C88.9074 21.9187 89.5981 22.1333 90.4754 22.376C91.5768 22.6747 92.4728 22.9733 93.1634 23.272C93.8541 23.552 94.4421 23.9813 94.9274 24.56C95.4314 25.1387 95.6928 25.8947 95.7114 26.828C95.7114 27.668 95.4781 28.424 95.0114 29.096C94.5448 29.768 93.8821 30.3 93.0234 30.692C92.1834 31.0653 91.2128 31.252 90.1114 31.252Z" fill="#E2E2FF"/>
<path d="M5.436 62.49C6.768 62.49 7.932 62.748 8.928 63.264C9.936 63.768 10.71 64.5 11.25 65.46C11.802 66.408 12.078 67.518 12.078 68.79C12.078 70.062 11.802 71.166 11.25 72.102C10.71 73.038 9.936 73.758 8.928 74.262C7.932 74.754 6.768 75 5.436 75H1.35V62.49H5.436ZM5.436 73.326C6.9 73.326 8.022 72.93 8.802 72.138C9.582 71.346 9.972 70.23 9.972 68.79C9.972 67.338 9.582 66.204 8.802 65.388C8.022 64.572 6.9 64.164 5.436 64.164H3.402V73.326H5.436ZM15.1557 63.768C14.7837 63.768 14.4717 63.642 14.2197 63.39C13.9677 63.138 13.8417 62.826 13.8417 62.454C13.8417 62.082 13.9677 61.77 14.2197 61.518C14.4717 61.266 14.7837 61.14 15.1557 61.14C15.5157 61.14 15.8217 61.266 16.0737 61.518C16.3257 61.77 16.4517 62.082 16.4517 62.454C16.4517 62.826 16.3257 63.138 16.0737 63.39C15.8217 63.642 15.5157 63.768 15.1557 63.768ZM16.1637 65.082V75H14.1117V65.082H16.1637ZM22.4578 75.162C21.6778 75.162 20.9758 75.024 20.3518 74.748C19.7398 74.46 19.2538 74.076 18.8938 73.596C18.5338 73.104 18.3418 72.558 18.3178 71.958H20.4418C20.4778 72.378 20.6758 72.732 21.0358 73.02C21.4078 73.296 21.8698 73.434 22.4218 73.434C22.9978 73.434 23.4418 73.326 23.7538 73.11C24.0778 72.882 24.2398 72.594 24.2398 72.246C24.2398 71.874 24.0598 71.598 23.6998 71.418C23.3518 71.238 22.7938 71.04 22.0258 70.824C21.2818 70.62 20.6758 70.422 20.2078 70.23C19.7398 70.038 19.3318 69.744 18.9838 69.348C18.6478 68.952 18.4798 68.43 18.4798 67.782C18.4798 67.254 18.6358 66.774 18.9478 66.342C19.2598 65.898 19.7038 65.55 20.2798 65.298C20.8678 65.046 21.5398 64.92 22.2958 64.92C23.4238 64.92 24.3298 65.208 25.0138 65.784C25.7098 66.348 26.0818 67.122 26.1298 68.106H24.0778C24.0418 67.662 23.8618 67.308 23.5378 67.044C23.2138 66.78 22.7758 66.648 22.2238 66.648C21.6838 66.648 21.2698 66.75 20.9818 66.954C20.6938 67.158 20.5498 67.428 20.5498 67.764C20.5498 68.028 20.6458 68.25 20.8378 68.43C21.0298 68.61 21.2638 68.754 21.5398 68.862C21.8158 68.958 22.2238 69.084 22.7638 69.24C23.4838 69.432 24.0718 69.63 24.5278 69.834C24.9958 70.026 25.3978 70.314 25.7338 70.698C26.0698 71.082 26.2438 71.592 26.2558 72.228C26.2558 72.792 26.0998 73.296 25.7878 73.74C25.4758 74.184 25.0318 74.532 24.4558 74.784C23.8918 75.036 23.2258 75.162 22.4578 75.162ZM37.563 69.798C37.563 70.17 37.539 70.506 37.491 70.806H29.913C29.973 71.598 30.267 72.234 30.795 72.714C31.323 73.194 31.971 73.434 32.739 73.434C33.843 73.434 34.623 72.972 35.079 72.048H37.293C36.993 72.96 36.447 73.71 35.655 74.298C34.875 74.874 33.903 75.162 32.739 75.162C31.791 75.162 30.939 74.952 30.183 74.532C29.439 74.1 28.851 73.5 28.419 72.732C27.999 71.952 27.789 71.052 27.789 70.032C27.789 69.012 27.993 68.118 28.401 67.35C28.821 66.57 29.403 65.97 30.147 65.55C30.903 65.13 31.767 64.92 32.739 64.92C33.675 64.92 34.509 65.124 35.241 65.532C35.973 65.94 36.543 66.516 36.951 67.26C37.359 67.992 37.563 68.838 37.563 69.798ZM35.421 69.15C35.409 68.394 35.139 67.788 34.611 67.332C34.083 66.876 33.429 66.648 32.649 66.648C31.941 66.648 31.335 66.876 30.831 67.332C30.327 67.776 30.027 68.382 29.931 69.15H35.421ZM44.5864 64.92C45.3664 64.92 46.0624 65.082 46.6744 65.406C47.2984 65.73 47.7844 66.21 48.1324 66.846C48.4804 67.482 48.6544 68.25 48.6544 69.15V75H46.6204V69.456C46.6204 68.568 46.3984 67.89 45.9544 67.422C45.5104 66.942 44.9044 66.702 44.1364 66.702C43.3684 66.702 42.7564 66.942 42.3004 67.422C41.8564 67.89 41.6344 68.568 41.6344 69.456V75H39.5824V65.082H41.6344V66.216C41.9704 65.808 42.3964 65.49 42.9124 65.262C43.4404 65.034 43.9984 64.92 44.5864 64.92ZM41.3284 64.056C41.4244 63.36 41.6524 62.838 42.0124 62.49C42.3724 62.13 42.8224 61.95 43.3624 61.95C43.5904 61.95 43.7884 61.986 43.9564 62.058C44.1244 62.13 44.3284 62.238 44.5684 62.382C44.7484 62.502 44.8984 62.592 45.0184 62.652C45.1504 62.712 45.2944 62.742 45.4504 62.742C45.6544 62.742 45.8224 62.682 45.9544 62.562C46.0984 62.43 46.1884 62.238 46.2244 61.986H47.3764C47.2804 62.682 47.0524 63.21 46.6924 63.57C46.3324 63.918 45.8824 64.092 45.3424 64.092C45.1144 64.092 44.9104 64.056 44.7304 63.984C44.5504 63.9 44.3524 63.786 44.1364 63.642C43.9204 63.51 43.7524 63.42 43.6324 63.372C43.5244 63.312 43.3984 63.282 43.2544 63.282C43.0504 63.282 42.8764 63.348 42.7324 63.48C42.6004 63.612 42.5164 63.804 42.4804 64.056H41.3284ZM55.5739 75.162C54.6379 75.162 53.7919 74.952 53.0359 74.532C52.2799 74.1 51.6859 73.5 51.2539 72.732C50.8219 71.952 50.6059 71.052 50.6059 70.032C50.6059 69.024 50.8279 68.13 51.2719 67.35C51.7159 66.57 52.3219 65.97 53.0899 65.55C53.8579 65.13 54.7159 64.92 55.6639 64.92C56.6119 64.92 57.4699 65.13 58.2379 65.55C59.0059 65.97 59.6119 66.57 60.0559 67.35C60.4999 68.13 60.7219 69.024 60.7219 70.032C60.7219 71.04 60.4939 71.934 60.0379 72.714C59.5819 73.494 58.9579 74.1 58.1659 74.532C57.3859 74.952 56.5219 75.162 55.5739 75.162ZM55.5739 73.38C56.1019 73.38 56.5939 73.254 57.0499 73.002C57.5179 72.75 57.8959 72.372 58.1839 71.868C58.4719 71.364 58.6159 70.752 58.6159 70.032C58.6159 69.312 58.4779 68.706 58.2019 68.214C57.9259 67.71 57.5599 67.332 57.1039 67.08C56.6479 66.828 56.1559 66.702 55.6279 66.702C55.0999 66.702 54.6079 66.828 54.1519 67.08C53.7079 67.332 53.3539 67.71 53.0899 68.214C52.8259 68.706 52.6939 69.312 52.6939 70.032C52.6939 71.1 52.9639 71.928 53.5039 72.516C54.0559 73.092 54.7459 73.38 55.5739 73.38ZM69.4602 62.49V70.464C69.4602 71.412 69.7062 72.126 70.1982 72.606C70.7022 73.086 71.3982 73.326 72.2862 73.326C73.1862 73.326 73.8822 73.086 74.3742 72.606C74.8782 72.126 75.1302 71.412 75.1302 70.464V62.49H77.1822V70.428C77.1822 71.448 76.9602 72.312 76.5162 73.02C76.0722 73.728 75.4782 74.256 74.7342 74.604C73.9902 74.952 73.1682 75.126 72.2682 75.126C71.3682 75.126 70.5462 74.952 69.8022 74.604C69.0702 74.256 68.4882 73.728 68.0562 73.02C67.6242 72.312 67.4082 71.448 67.4082 70.428V62.49H69.4602ZM85.5959 68.754L89.4839 75H87.1799L84.3539 70.464L81.7079 75H79.4219L83.3099 68.754L79.4039 62.49H81.7079L84.5519 67.062L87.2159 62.49H89.5019L85.5959 68.754ZM98.3967 58.008L93.5007 78.15H91.4847L96.3627 58.008H98.3967ZM103.017 62.49V70.464C103.017 71.412 103.263 72.126 103.755 72.606C104.259 73.086 104.955 73.326 105.843 73.326C106.743 73.326 107.439 73.086 107.931 72.606C108.435 72.126 108.687 71.412 108.687 70.464V62.49H110.739V70.428C110.739 71.448 110.517 72.312 110.073 73.02C109.629 73.728 109.035 74.256 108.291 74.604C107.547 74.952 106.725 75.126 105.825 75.126C104.925 75.126 104.103 74.952 103.359 74.604C102.627 74.256 102.045 73.728 101.613 73.02C101.181 72.312 100.965 71.448 100.965 70.428V62.49H103.017ZM115.463 62.49V75H113.411V62.49H115.463ZM0.972 95.718C1.188 94.494 1.656 93.396 2.376 92.424C3.108 91.44 3.996 90.672 5.04 90.12C6.096 89.568 7.2 89.292 8.352 89.292C9.72 89.292 10.854 89.622 11.754 90.282C12.666 90.942 13.254 91.878 13.518 93.09H11.556C11.34 92.358 10.938 91.794 10.35 91.398C9.762 90.99 9.012 90.786 8.1 90.786C7.224 90.786 6.402 90.99 5.634 91.398C4.878 91.794 4.236 92.37 3.708 93.126C3.18 93.87 2.826 94.734 2.646 95.718C2.586 96.03 2.556 96.39 2.556 96.798C2.556 97.974 2.898 98.91 3.582 99.606C4.278 100.29 5.202 100.632 6.354 100.632C7.266 100.632 8.088 100.434 8.82 100.038C9.552 99.642 10.152 99.078 10.62 98.346H12.582C11.898 99.546 10.986 100.476 9.846 101.136C8.718 101.784 7.47 102.108 6.102 102.108C5.082 102.108 4.176 101.898 3.384 101.478C2.592 101.046 1.974 100.446 1.53 99.678C1.086 98.898 0.864 98.004 0.864 96.996C0.864 96.576 0.9 96.15 0.972 95.718ZM18.7103 102.162C17.8823 102.162 17.1503 101.994 16.5143 101.658C15.8903 101.31 15.4043 100.83 15.0563 100.218C14.7083 99.594 14.5343 98.874 14.5343 98.058C14.5343 96.942 14.7923 95.922 15.3083 94.998C15.8243 94.062 16.5323 93.324 17.4323 92.784C18.3443 92.244 19.3583 91.974 20.4743 91.974C21.3023 91.974 22.0343 92.148 22.6703 92.496C23.3183 92.832 23.8163 93.312 24.1643 93.936C24.5243 94.548 24.7043 95.268 24.7043 96.096C24.7043 97.212 24.4403 98.232 23.9123 99.156C23.3843 100.08 22.6643 100.812 21.7523 101.352C20.8403 101.892 19.8263 102.162 18.7103 102.162ZM18.9083 100.776C19.6883 100.776 20.3903 100.566 21.0143 100.146C21.6383 99.714 22.1243 99.15 22.4723 98.454C22.8323 97.746 23.0123 96.99 23.0123 96.186C23.0123 95.274 22.7483 94.578 22.2203 94.098C21.6923 93.606 21.0323 93.36 20.2403 93.36C19.4603 93.36 18.7643 93.576 18.1523 94.008C17.5403 94.428 17.0663 94.992 16.7303 95.7C16.3943 96.408 16.2263 97.17 16.2263 97.986C16.2263 98.874 16.4783 99.564 16.9823 100.056C17.4863 100.536 18.1283 100.776 18.9083 100.776ZM26.138 97.032C26.318 96.024 26.678 95.142 27.218 94.386C27.77 93.618 28.442 93.024 29.234 92.604C30.026 92.184 30.866 91.974 31.754 91.974C32.51 91.974 33.188 92.154 33.788 92.514C34.388 92.862 34.814 93.324 35.066 93.9L35.984 88.68H37.64L35.282 102H33.626L33.968 100.146C33.548 100.734 32.984 101.22 32.276 101.604C31.568 101.976 30.788 102.162 29.936 102.162C29.168 102.162 28.49 102 27.902 101.676C27.314 101.34 26.852 100.866 26.516 100.254C26.192 99.642 26.03 98.934 26.03 98.13C26.03 97.77 26.066 97.404 26.138 97.032ZM34.508 97.05C34.556 96.798 34.58 96.528 34.58 96.24C34.58 95.364 34.316 94.674 33.788 94.17C33.272 93.654 32.612 93.396 31.808 93.396C31.196 93.396 30.608 93.54 30.044 93.828C29.492 94.116 29.018 94.536 28.622 95.088C28.226 95.64 27.962 96.288 27.83 97.032C27.782 97.284 27.758 97.56 27.758 97.86C27.758 98.748 28.016 99.45 28.532 99.966C29.048 100.47 29.708 100.722 30.512 100.722C31.124 100.722 31.706 100.578 32.258 100.29C32.822 99.99 33.302 99.564 33.698 99.012C34.106 98.448 34.376 97.794 34.508 97.05ZM44.08 91.974C44.908 91.974 45.622 92.136 46.222 92.46C46.834 92.772 47.296 93.216 47.608 93.792C47.932 94.356 48.094 95.004 48.094 95.736C48.094 95.988 48.064 96.294 48.004 96.654C47.956 96.966 47.878 97.29 47.77 97.626H39.886C39.862 97.866 39.85 98.04 39.85 98.148C39.85 98.976 40.096 99.624 40.588 100.092C41.092 100.548 41.746 100.776 42.55 100.776C43.258 100.776 43.876 100.614 44.404 100.29C44.944 99.954 45.352 99.51 45.628 98.958H47.392C46.96 99.906 46.294 100.68 45.394 101.28C44.506 101.868 43.474 102.162 42.298 102.162C41.062 102.162 40.066 101.808 39.31 101.1C38.566 100.38 38.194 99.402 38.194 98.166C38.194 97.818 38.23 97.446 38.302 97.05C38.482 96.03 38.848 95.136 39.4 94.368C39.952 93.6 40.63 93.012 41.434 92.604C42.25 92.184 43.132 91.974 44.08 91.974ZM46.348 96.438C46.384 96.198 46.402 95.976 46.402 95.772C46.402 95.004 46.156 94.41 45.664 93.99C45.184 93.57 44.554 93.36 43.774 93.36C42.934 93.36 42.172 93.636 41.488 94.188C40.804 94.728 40.342 95.478 40.102 96.438H46.348ZM52.2721 94.008C52.6681 93.36 53.1661 92.856 53.7661 92.496C54.3661 92.136 55.0501 91.956 55.8181 91.956L55.5121 93.648H55.0801C54.2281 93.648 53.5141 93.876 52.9381 94.332C52.3741 94.788 51.9961 95.556 51.8041 96.636L50.8501 102H49.2121L50.9581 92.136H52.5961L52.2721 94.008ZM67.807 89.454L65.593 102H63.955L64.963 96.276H58.591L57.565 102H55.927L58.159 89.454H59.797L58.807 94.998H65.197L66.169 89.454H67.807ZM72.7103 102.162C71.8823 102.162 71.1503 101.994 70.5143 101.658C69.8903 101.31 69.4043 100.83 69.0563 100.218C68.7083 99.594 68.5343 98.874 68.5343 98.058C68.5343 96.942 68.7923 95.922 69.3083 94.998C69.8243 94.062 70.5323 93.324 71.4323 92.784C72.3443 92.244 73.3583 91.974 74.4743 91.974C75.3023 91.974 76.0343 92.148 76.6703 92.496C77.3183 92.832 77.8163 93.312 78.1643 93.936C78.5243 94.548 78.7043 95.268 78.7043 96.096C78.7043 97.212 78.4403 98.232 77.9123 99.156C77.3843 100.08 76.6643 100.812 75.7523 101.352C74.8403 101.892 73.8263 102.162 72.7103 102.162ZM72.9083 100.776C73.6883 100.776 74.3903 100.566 75.0143 100.146C75.6383 99.714 76.1243 99.15 76.4723 98.454C76.8323 97.746 77.0123 96.99 77.0123 96.186C77.0123 95.274 76.7483 94.578 76.2203 94.098C75.6923 93.606 75.0323 93.36 74.2403 93.36C73.4603 93.36 72.7643 93.576 72.1523 94.008C71.5403 94.428 71.0663 94.992 70.7303 95.7C70.3943 96.408 70.2263 97.17 70.2263 97.986C70.2263 98.874 70.4783 99.564 70.9823 100.056C71.4863 100.536 72.1283 100.776 72.9083 100.776ZM90.38 92.136L88.634 102H86.996L87.248 100.56C86.852 101.064 86.348 101.454 85.736 101.73C85.124 102.006 84.488 102.144 83.828 102.144C82.796 102.144 81.968 101.868 81.344 101.316C80.732 100.752 80.426 99.948 80.426 98.904C80.426 98.64 80.456 98.31 80.516 97.914L81.542 92.136H83.162L82.19 97.698C82.142 97.95 82.118 98.214 82.118 98.49C82.118 99.222 82.316 99.78 82.712 100.164C83.12 100.536 83.684 100.722 84.404 100.722C85.268 100.722 86 100.452 86.6 99.912C87.212 99.372 87.602 98.586 87.77 97.554V97.608L88.742 92.136H90.38ZM94.8736 102.162C93.8416 102.162 92.9956 101.916 92.3356 101.424C91.6756 100.932 91.3456 100.272 91.3456 99.444C91.3456 99.288 91.3516 99.174 91.3636 99.102H92.9656C92.9176 99.618 93.0676 100.038 93.4156 100.362C93.7756 100.686 94.2916 100.848 94.9636 100.848C95.6356 100.848 96.1756 100.722 96.5836 100.47C97.0036 100.206 97.2136 99.84 97.2136 99.372C97.2136 98.976 97.0456 98.664 96.7096 98.436C96.3736 98.208 95.8576 97.962 95.1616 97.698C94.5496 97.47 94.0456 97.254 93.6496 97.05C93.2536 96.846 92.9176 96.564 92.6416 96.204C92.3656 95.832 92.2276 95.364 92.2276 94.8C92.2276 94.248 92.3836 93.756 92.6956 93.324C93.0196 92.892 93.4636 92.562 94.0276 92.334C94.6036 92.094 95.2576 91.974 95.9896 91.974C96.9976 91.974 97.8256 92.226 98.4736 92.73C99.1216 93.234 99.4456 93.894 99.4456 94.71C99.4456 94.866 99.4396 94.986 99.4276 95.07H97.8616L97.8796 94.854C97.8796 94.374 97.6936 93.996 97.3216 93.72C96.9616 93.432 96.4816 93.288 95.8816 93.288C95.2936 93.288 94.8076 93.42 94.4236 93.684C94.0516 93.948 93.8656 94.302 93.8656 94.746C93.8656 95.166 94.0396 95.496 94.3876 95.736C94.7356 95.976 95.2756 96.24 96.0076 96.528C96.6196 96.768 97.1116 96.99 97.4836 97.194C97.8556 97.386 98.1736 97.656 98.4376 98.004C98.7016 98.352 98.8336 98.79 98.8336 99.318C98.8336 99.894 98.6596 100.398 98.3116 100.83C97.9756 101.262 97.5076 101.592 96.9076 101.82C96.3076 102.048 95.6296 102.162 94.8736 102.162ZM106.834 91.974C107.662 91.974 108.376 92.136 108.976 92.46C109.588 92.772 110.05 93.216 110.362 93.792C110.686 94.356 110.848 95.004 110.848 95.736C110.848 95.988 110.818 96.294 110.758 96.654C110.71 96.966 110.632 97.29 110.524 97.626H102.64C102.616 97.866 102.604 98.04 102.604 98.148C102.604 98.976 102.85 99.624 103.342 100.092C103.846 100.548 104.5 100.776 105.304 100.776C106.012 100.776 106.63 100.614 107.158 100.29C107.698 99.954 108.106 99.51 108.382 98.958H110.146C109.714 99.906 109.048 100.68 108.148 101.28C107.26 101.868 106.228 102.162 105.052 102.162C103.816 102.162 102.82 101.808 102.064 101.1C101.32 100.38 100.948 99.402 100.948 98.166C100.948 97.818 100.984 97.446 101.056 97.05C101.236 96.03 101.602 95.136 102.154 94.368C102.706 93.6 103.384 93.012 104.188 92.604C105.004 92.184 105.886 91.974 106.834 91.974ZM109.102 96.438C109.138 96.198 109.156 95.976 109.156 95.772C109.156 95.004 108.91 94.41 108.418 93.99C107.938 93.57 107.308 93.36 106.528 93.36C105.688 93.36 104.926 93.636 104.242 94.188C103.558 94.728 103.096 95.478 102.856 96.438H109.102ZM125.463 94.71L125.211 96.096H118.029L118.281 94.71H125.463ZM132.369 100.686C134.109 99.45 135.483 98.448 136.491 97.68C137.499 96.9 138.369 96.09 139.101 95.25C139.845 94.398 140.289 93.57 140.433 92.766C140.469 92.55 140.487 92.334 140.487 92.118C140.487 91.554 140.325 91.11 140.001 90.786C139.677 90.462 139.161 90.3 138.453 90.3C137.649 90.3 136.977 90.558 136.437 91.074C135.897 91.578 135.531 92.256 135.339 93.108H133.755C134.043 91.764 134.637 90.726 135.537 89.994C136.437 89.262 137.493 88.896 138.705 88.896C139.785 88.896 140.625 89.16 141.225 89.688C141.837 90.216 142.143 90.948 142.143 91.884C142.143 92.172 142.119 92.442 142.071 92.694C141.903 93.654 141.435 94.602 140.667 95.538C139.911 96.474 139.089 97.296 138.201 98.004C137.313 98.712 136.203 99.54 134.871 100.488H141.063L140.829 101.856H132.153L132.369 100.686ZM143.856 95.466C144.216 93.426 144.828 91.83 145.692 90.678C146.568 89.526 147.846 88.95 149.526 88.95C150.822 88.95 151.746 89.304 152.298 90.012C152.862 90.708 153.144 91.686 153.144 92.946C153.144 93.69 153.06 94.53 152.892 95.466C152.532 97.518 151.914 99.12 151.038 100.272C150.174 101.424 148.902 102 147.222 102C145.926 102 144.996 101.652 144.432 100.956C143.88 100.248 143.604 99.258 143.604 97.986C143.604 97.242 143.688 96.402 143.856 95.466ZM151.29 95.466C151.458 94.482 151.542 93.696 151.542 93.108C151.542 92.256 151.368 91.602 151.02 91.146C150.684 90.678 150.102 90.444 149.274 90.444C148.458 90.444 147.798 90.666 147.294 91.11C146.79 91.542 146.4 92.118 146.124 92.838C145.86 93.558 145.638 94.434 145.458 95.466C145.29 96.45 145.206 97.242 145.206 97.842C145.206 98.694 145.374 99.354 145.71 99.822C146.058 100.278 146.646 100.506 147.474 100.506C148.29 100.506 148.95 100.29 149.454 99.858C149.958 99.414 150.342 98.832 150.606 98.112C150.87 97.392 151.098 96.51 151.29 95.466ZM154.025 100.686C155.765 99.45 157.139 98.448 158.147 97.68C159.155 96.9 160.025 96.09 160.757 95.25C161.501 94.398 161.945 93.57 162.089 92.766C162.125 92.55 162.143 92.334 162.143 92.118C162.143 91.554 161.981 91.11 161.657 90.786C161.333 90.462 160.817 90.3 160.109 90.3C159.305 90.3 158.633 90.558 158.093 91.074C157.553 91.578 157.187 92.256 156.995 93.108H155.411C155.699 91.764 156.293 90.726 157.193 89.994C158.093 89.262 159.149 88.896 160.361 88.896C161.441 88.896 162.281 89.16 162.881 89.688C163.493 90.216 163.799 90.948 163.799 91.884C163.799 92.172 163.775 92.442 163.727 92.694C163.559 93.654 163.091 94.602 162.323 95.538C161.567 96.474 160.745 97.296 159.857 98.004C158.969 98.712 157.859 99.54 156.527 100.488H162.719L162.485 101.856H153.809L154.025 100.686ZM164.451 99.102L164.667 97.86L172.533 89.112H174.495L173.001 97.68H174.801L174.531 99.102H172.731L172.227 102H170.607L171.129 99.102H164.451ZM172.659 90.822L166.611 97.68H171.453L172.659 90.822Z" fill="#E2E2FF"/>
<path d="M8.172 128.49V137.508C8.172 138.624 7.83 139.506 7.146 140.154C6.474 140.802 5.586 141.126 4.482 141.126C3.378 141.126 2.484 140.802 1.8 140.154C1.128 139.506 0.792 138.624 0.792 137.508H2.862C2.874 138.06 3.012 138.498 3.276 138.822C3.552 139.146 3.954 139.308 4.482 139.308C5.01 139.308 5.412 139.146 5.688 138.822C5.964 138.486 6.102 138.048 6.102 137.508V128.49H8.172ZM10.8262 135.996C10.8262 135 11.0302 134.118 11.4382 133.35C11.8582 132.582 12.4222 131.988 13.1302 131.568C13.8502 131.136 14.6422 130.92 15.5062 130.92C16.2862 130.92 16.9642 131.076 17.5402 131.388C18.1282 131.688 18.5962 132.066 18.9442 132.522V131.082H21.0142V141H18.9442V139.524C18.5962 139.992 18.1222 140.382 17.5222 140.694C16.9222 141.006 16.2382 141.162 15.4702 141.162C14.6182 141.162 13.8382 140.946 13.1302 140.514C12.4222 140.07 11.8582 139.458 11.4382 138.678C11.0302 137.886 10.8262 136.992 10.8262 135.996ZM18.9442 136.032C18.9442 135.348 18.8002 134.754 18.5122 134.25C18.2362 133.746 17.8702 133.362 17.4142 133.098C16.9582 132.834 16.4662 132.702 15.9382 132.702C15.4102 132.702 14.9182 132.834 14.4622 133.098C14.0062 133.35 13.6342 133.728 13.3462 134.232C13.0702 134.724 12.9322 135.312 12.9322 135.996C12.9322 136.68 13.0702 137.28 13.3462 137.796C13.6342 138.312 14.0062 138.708 14.4622 138.984C14.9302 139.248 15.4222 139.38 15.9382 139.38C16.4662 139.38 16.9582 139.248 17.4142 138.984C17.8702 138.72 18.2362 138.336 18.5122 137.832C18.8002 137.316 18.9442 136.716 18.9442 136.032ZM27.5434 139.164L30.3514 131.082H32.5294L28.7494 141H26.3014L22.5394 131.082H24.7354L27.5434 139.164ZM33.3965 135.996C33.3965 135 33.6005 134.118 34.0085 133.35C34.4285 132.582 34.9925 131.988 35.7005 131.568C36.4205 131.136 37.2125 130.92 38.0765 130.92C38.8565 130.92 39.5345 131.076 40.1105 131.388C40.6985 131.688 41.1665 132.066 41.5145 132.522V131.082H43.5845V141H41.5145V139.524C41.1665 139.992 40.6925 140.382 40.0925 140.694C39.4925 141.006 38.8085 141.162 38.0405 141.162C37.1885 141.162 36.4085 140.946 35.7005 140.514C34.9925 140.07 34.4285 139.458 34.0085 138.678C33.6005 137.886 33.3965 136.992 33.3965 135.996ZM41.5145 136.032C41.5145 135.348 41.3705 134.754 41.0825 134.25C40.8065 133.746 40.4405 133.362 39.9845 133.098C39.5285 132.834 39.0365 132.702 38.5085 132.702C37.9805 132.702 37.4885 132.834 37.0325 133.098C36.5765 133.35 36.2045 133.728 35.9165 134.232C35.6405 134.724 35.5025 135.312 35.5025 135.996C35.5025 136.68 35.6405 137.28 35.9165 137.796C36.2045 138.312 36.5765 138.708 37.0325 138.984C37.5005 139.248 37.9925 139.38 38.5085 139.38C39.0365 139.38 39.5285 139.248 39.9845 138.984C40.4405 138.72 40.8065 138.336 41.0825 137.832C41.3705 137.316 41.5145 136.716 41.5145 136.032ZM50.4017 141.126C49.5617 141.126 48.8057 140.982 48.1337 140.694C47.4617 140.394 46.9337 139.974 46.5497 139.434C46.1657 138.894 45.9737 138.264 45.9737 137.544H48.1697C48.2177 138.084 48.4277 138.528 48.7997 138.876C49.1837 139.224 49.7177 139.398 50.4017 139.398C51.1097 139.398 51.6617 139.23 52.0577 138.894C52.4537 138.546 52.6517 138.102 52.6517 137.562C52.6517 137.142 52.5257 136.8 52.2737 136.536C52.0337 136.272 51.7277 136.068 51.3557 135.924C50.9957 135.78 50.4917 135.624 49.8437 135.456C49.0277 135.24 48.3617 135.024 47.8457 134.808C47.3417 134.58 46.9097 134.232 46.5497 133.764C46.1897 133.296 46.0097 132.672 46.0097 131.892C46.0097 131.172 46.1897 130.542 46.5497 130.002C46.9097 129.462 47.4137 129.048 48.0617 128.76C48.7097 128.472 49.4597 128.328 50.3117 128.328C51.5237 128.328 52.5137 128.634 53.2817 129.246C54.0617 129.846 54.4937 130.674 54.5777 131.73H52.3097C52.2737 131.274 52.0577 130.884 51.6617 130.56C51.2657 130.236 50.7437 130.074 50.0957 130.074C49.5077 130.074 49.0277 130.224 48.6557 130.524C48.2837 130.824 48.0977 131.256 48.0977 131.82C48.0977 132.204 48.2117 132.522 48.4397 132.774C48.6797 133.014 48.9797 133.206 49.3397 133.35C49.6997 133.494 50.1917 133.65 50.8157 133.818C51.6437 134.046 52.3157 134.274 52.8317 134.502C53.3597 134.73 53.8037 135.084 54.1637 135.564C54.5357 136.032 54.7217 136.662 54.7217 137.454C54.7217 138.09 54.5477 138.69 54.1997 139.254C53.8637 139.818 53.3657 140.274 52.7057 140.622C52.0577 140.958 51.2897 141.126 50.4017 141.126ZM56.459 136.032C56.459 135.012 56.663 134.118 57.071 133.35C57.491 132.57 58.067 131.97 58.799 131.55C59.531 131.13 60.371 130.92 61.319 130.92C62.519 130.92 63.509 131.208 64.289 131.784C65.081 132.348 65.615 133.158 65.891 134.214H63.677C63.497 133.722 63.209 133.338 62.813 133.062C62.417 132.786 61.919 132.648 61.319 132.648C60.479 132.648 59.807 132.948 59.303 133.548C58.811 134.136 58.565 134.964 58.565 136.032C58.565 137.1 58.811 137.934 59.303 138.534C59.807 139.134 60.479 139.434 61.319 139.434C62.507 139.434 63.293 138.912 63.677 137.868H65.891C65.603 138.876 65.063 139.68 64.271 140.28C63.479 140.868 62.495 141.162 61.319 141.162C60.371 141.162 59.531 140.952 58.799 140.532C58.067 140.1 57.491 139.5 57.071 138.732C56.663 137.952 56.459 137.052 56.459 136.032ZM69.9879 132.522C70.2879 132.018 70.6839 131.628 71.1759 131.352C71.6799 131.064 72.2739 130.92 72.9579 130.92V133.044H72.4359C71.6319 133.044 71.0199 133.248 70.5999 133.656C70.1919 134.064 69.9879 134.772 69.9879 135.78V141H67.9359V131.082H69.9879V132.522ZM75.8881 129.768C75.5161 129.768 75.2041 129.642 74.9521 129.39C74.7001 129.138 74.5741 128.826 74.5741 128.454C74.5741 128.082 74.7001 127.77 74.9521 127.518C75.2041 127.266 75.5161 127.14 75.8881 127.14C76.2481 127.14 76.5541 127.266 76.8061 127.518C77.0581 127.77 77.1841 128.082 77.1841 128.454C77.1841 128.826 77.0581 129.138 76.8061 129.39C76.5541 129.642 76.2481 129.768 75.8881 129.768ZM76.8961 131.082V141H74.8441V131.082H76.8961ZM81.6422 132.54C81.9902 132.084 82.4642 131.7 83.0642 131.388C83.6642 131.076 84.3422 130.92 85.0982 130.92C85.9622 130.92 86.7482 131.136 87.4562 131.568C88.1762 131.988 88.7402 132.582 89.1482 133.35C89.5562 134.118 89.7602 135 89.7602 135.996C89.7602 136.992 89.5562 137.886 89.1482 138.678C88.7402 139.458 88.1762 140.07 87.4562 140.514C86.7482 140.946 85.9622 141.162 85.0982 141.162C84.3422 141.162 83.6702 141.012 83.0822 140.712C82.4942 140.4 82.0142 140.016 81.6422 139.56V145.716H79.5902V131.082H81.6422V132.54ZM87.6722 135.996C87.6722 135.312 87.5282 134.724 87.2402 134.232C86.9642 133.728 86.5922 133.35 86.1242 133.098C85.6682 132.834 85.1762 132.702 84.6482 132.702C84.1322 132.702 83.6402 132.834 83.1722 133.098C82.7162 133.362 82.3442 133.746 82.0562 134.25C81.7802 134.754 81.6422 135.348 81.6422 136.032C81.6422 136.716 81.7802 137.316 82.0562 137.832C82.3442 138.336 82.7162 138.72 83.1722 138.984C83.6402 139.248 84.1322 139.38 84.6482 139.38C85.1762 139.38 85.6682 139.248 86.1242 138.984C86.5922 138.708 86.9642 138.312 87.2402 137.796C87.5282 137.28 87.6722 136.68 87.6722 135.996ZM94.1835 132.756V138.246C94.1835 138.618 94.2675 138.888 94.4355 139.056C94.6155 139.212 94.9155 139.29 95.3355 139.29H96.5955V141H94.9755C94.0515 141 93.3435 140.784 92.8515 140.352C92.3595 139.92 92.1135 139.218 92.1135 138.246V132.756H90.9435V131.082H92.1135V128.616H94.1835V131.082H96.5955V132.756H94.1835ZM0.972 161.718C1.188 160.494 1.656 159.396 2.376 158.424C3.108 157.44 3.996 156.672 5.04 156.12C6.096 155.568 7.2 155.292 8.352 155.292C9.72 155.292 10.854 155.622 11.754 156.282C12.666 156.942 13.254 157.878 13.518 159.09H11.556C11.34 158.358 10.938 157.794 10.35 157.398C9.762 156.99 9.012 156.786 8.1 156.786C7.224 156.786 6.402 156.99 5.634 157.398C4.878 157.794 4.236 158.37 3.708 159.126C3.18 159.87 2.826 160.734 2.646 161.718C2.586 162.03 2.556 162.39 2.556 162.798C2.556 163.974 2.898 164.91 3.582 165.606C4.278 166.29 5.202 166.632 6.354 166.632C7.266 166.632 8.088 166.434 8.82 166.038C9.552 165.642 10.152 165.078 10.62 164.346H12.582C11.898 165.546 10.986 166.476 9.846 167.136C8.718 167.784 7.47 168.108 6.102 168.108C5.082 168.108 4.176 167.898 3.384 167.478C2.592 167.046 1.974 166.446 1.53 165.678C1.086 164.898 0.864 164.004 0.864 162.996C0.864 162.576 0.9 162.15 0.972 161.718ZM18.7103 168.162C17.8823 168.162 17.1503 167.994 16.5143 167.658C15.8903 167.31 15.4043 166.83 15.0563 166.218C14.7083 165.594 14.5343 164.874 14.5343 164.058C14.5343 162.942 14.7923 161.922 15.3083 160.998C15.8243 160.062 16.5323 159.324 17.4323 158.784C18.3443 158.244 19.3583 157.974 20.4743 157.974C21.3023 157.974 22.0343 158.148 22.6703 158.496C23.3183 158.832 23.8163 159.312 24.1643 159.936C24.5243 160.548 24.7043 161.268 24.7043 162.096C24.7043 163.212 24.4403 164.232 23.9123 165.156C23.3843 166.08 22.6643 166.812 21.7523 167.352C20.8403 167.892 19.8263 168.162 18.7103 168.162ZM18.9083 166.776C19.6883 166.776 20.3903 166.566 21.0143 166.146C21.6383 165.714 22.1243 165.15 22.4723 164.454C22.8323 163.746 23.0123 162.99 23.0123 162.186C23.0123 161.274 22.7483 160.578 22.2203 160.098C21.6923 159.606 21.0323 159.36 20.2403 159.36C19.4603 159.36 18.7643 159.576 18.1523 160.008C17.5403 160.428 17.0663 160.992 16.7303 161.7C16.3943 162.408 16.2263 163.17 16.2263 163.986C16.2263 164.874 16.4783 165.564 16.9823 166.056C17.4863 166.536 18.1283 166.776 18.9083 166.776ZM26.138 163.032C26.318 162.024 26.678 161.142 27.218 160.386C27.77 159.618 28.442 159.024 29.234 158.604C30.026 158.184 30.866 157.974 31.754 157.974C32.51 157.974 33.188 158.154 33.788 158.514C34.388 158.862 34.814 159.324 35.066 159.9L35.984 154.68H37.64L35.282 168H33.626L33.968 166.146C33.548 166.734 32.984 167.22 32.276 167.604C31.568 167.976 30.788 168.162 29.936 168.162C29.168 168.162 28.49 168 27.902 167.676C27.314 167.34 26.852 166.866 26.516 166.254C26.192 165.642 26.03 164.934 26.03 164.13C26.03 163.77 26.066 163.404 26.138 163.032ZM34.508 163.05C34.556 162.798 34.58 162.528 34.58 162.24C34.58 161.364 34.316 160.674 33.788 160.17C33.272 159.654 32.612 159.396 31.808 159.396C31.196 159.396 30.608 159.54 30.044 159.828C29.492 160.116 29.018 160.536 28.622 161.088C28.226 161.64 27.962 162.288 27.83 163.032C27.782 163.284 27.758 163.56 27.758 163.86C27.758 164.748 28.016 165.45 28.532 165.966C29.048 166.47 29.708 166.722 30.512 166.722C31.124 166.722 31.706 166.578 32.258 166.29C32.822 165.99 33.302 165.564 33.698 165.012C34.106 164.448 34.376 163.794 34.508 163.05ZM44.08 157.974C44.908 157.974 45.622 158.136 46.222 158.46C46.834 158.772 47.296 159.216 47.608 159.792C47.932 160.356 48.094 161.004 48.094 161.736C48.094 161.988 48.064 162.294 48.004 162.654C47.956 162.966 47.878 163.29 47.77 163.626H39.886C39.862 163.866 39.85 164.04 39.85 164.148C39.85 164.976 40.096 165.624 40.588 166.092C41.092 166.548 41.746 166.776 42.55 166.776C43.258 166.776 43.876 166.614 44.404 166.29C44.944 165.954 45.352 165.51 45.628 164.958H47.392C46.96 165.906 46.294 166.68 45.394 167.28C44.506 167.868 43.474 168.162 42.298 168.162C41.062 168.162 40.066 167.808 39.31 167.1C38.566 166.38 38.194 165.402 38.194 164.166C38.194 163.818 38.23 163.446 38.302 163.05C38.482 162.03 38.848 161.136 39.4 160.368C39.952 159.6 40.63 159.012 41.434 158.604C42.25 158.184 43.132 157.974 44.08 157.974ZM46.348 162.438C46.384 162.198 46.402 161.976 46.402 161.772C46.402 161.004 46.156 160.41 45.664 159.99C45.184 159.57 44.554 159.36 43.774 159.36C42.934 159.36 42.172 159.636 41.488 160.188C40.804 160.728 40.342 161.478 40.102 162.438H46.348ZM52.2721 160.008C52.6681 159.36 53.1661 158.856 53.7661 158.496C54.3661 158.136 55.0501 157.956 55.8181 157.956L55.5121 159.648H55.0801C54.2281 159.648 53.5141 159.876 52.9381 160.332C52.3741 160.788 51.9961 161.556 51.8041 162.636L50.8501 168H49.2121L50.9581 158.136H52.5961L52.2721 160.008ZM67.807 155.454L65.593 168H63.955L64.963 162.276H58.591L57.565 168H55.927L58.159 155.454H59.797L58.807 160.998H65.197L66.169 155.454H67.807ZM72.7103 168.162C71.8823 168.162 71.1503 167.994 70.5143 167.658C69.8903 167.31 69.4043 166.83 69.0563 166.218C68.7083 165.594 68.5343 164.874 68.5343 164.058C68.5343 162.942 68.7923 161.922 69.3083 160.998C69.8243 160.062 70.5323 159.324 71.4323 158.784C72.3443 158.244 73.3583 157.974 74.4743 157.974C75.3023 157.974 76.0343 158.148 76.6703 158.496C77.3183 158.832 77.8163 159.312 78.1643 159.936C78.5243 160.548 78.7043 161.268 78.7043 162.096C78.7043 163.212 78.4403 164.232 77.9123 165.156C77.3843 166.08 76.6643 166.812 75.7523 167.352C74.8403 167.892 73.8263 168.162 72.7103 168.162ZM72.9083 166.776C73.6883 166.776 74.3903 166.566 75.0143 166.146C75.6383 165.714 76.1243 165.15 76.4723 164.454C76.8323 163.746 77.0123 162.99 77.0123 162.186C77.0123 161.274 76.7483 160.578 76.2203 160.098C75.6923 159.606 75.0323 159.36 74.2403 159.36C73.4603 159.36 72.7643 159.576 72.1523 160.008C71.5403 160.428 71.0663 160.992 70.7303 161.7C70.3943 162.408 70.2263 163.17 70.2263 163.986C70.2263 164.874 70.4783 165.564 70.9823 166.056C71.4863 166.536 72.1283 166.776 72.9083 166.776ZM90.38 158.136L88.634 168H86.996L87.248 166.56C86.852 167.064 86.348 167.454 85.736 167.73C85.124 168.006 84.488 168.144 83.828 168.144C82.796 168.144 81.968 167.868 81.344 167.316C80.732 166.752 80.426 165.948 80.426 164.904C80.426 164.64 80.456 164.31 80.516 163.914L81.542 158.136H83.162L82.19 163.698C82.142 163.95 82.118 164.214 82.118 164.49C82.118 165.222 82.316 165.78 82.712 166.164C83.12 166.536 83.684 166.722 84.404 166.722C85.268 166.722 86 166.452 86.6 165.912C87.212 165.372 87.602 164.586 87.77 163.554V163.608L88.742 158.136H90.38ZM94.8736 168.162C93.8416 168.162 92.9956 167.916 92.3356 167.424C91.6756 166.932 91.3456 166.272 91.3456 165.444C91.3456 165.288 91.3516 165.174 91.3636 165.102H92.9656C92.9176 165.618 93.0676 166.038 93.4156 166.362C93.7756 166.686 94.2916 166.848 94.9636 166.848C95.6356 166.848 96.1756 166.722 96.5836 166.47C97.0036 166.206 97.2136 165.84 97.2136 165.372C97.2136 164.976 97.0456 164.664 96.7096 164.436C96.3736 164.208 95.8576 163.962 95.1616 163.698C94.5496 163.47 94.0456 163.254 93.6496 163.05C93.2536 162.846 92.9176 162.564 92.6416 162.204C92.3656 161.832 92.2276 161.364 92.2276 160.8C92.2276 160.248 92.3836 159.756 92.6956 159.324C93.0196 158.892 93.4636 158.562 94.0276 158.334C94.6036 158.094 95.2576 157.974 95.9896 157.974C96.9976 157.974 97.8256 158.226 98.4736 158.73C99.1216 159.234 99.4456 159.894 99.4456 160.71C99.4456 160.866 99.4396 160.986 99.4276 161.07H97.8616L97.8796 160.854C97.8796 160.374 97.6936 159.996 97.3216 159.72C96.9616 159.432 96.4816 159.288 95.8816 159.288C95.2936 159.288 94.8076 159.42 94.4236 159.684C94.0516 159.948 93.8656 160.302 93.8656 160.746C93.8656 161.166 94.0396 161.496 94.3876 161.736C94.7356 161.976 95.2756 162.24 96.0076 162.528C96.6196 162.768 97.1116 162.99 97.4836 163.194C97.8556 163.386 98.1736 163.656 98.4376 164.004C98.7016 164.352 98.8336 164.79 98.8336 165.318C98.8336 165.894 98.6596 166.398 98.3116 166.83C97.9756 167.262 97.5076 167.592 96.9076 167.82C96.3076 168.048 95.6296 168.162 94.8736 168.162ZM106.834 157.974C107.662 157.974 108.376 158.136 108.976 158.46C109.588 158.772 110.05 159.216 110.362 159.792C110.686 160.356 110.848 161.004 110.848 161.736C110.848 161.988 110.818 162.294 110.758 162.654C110.71 162.966 110.632 163.29 110.524 163.626H102.64C102.616 163.866 102.604 164.04 102.604 164.148C102.604 164.976 102.85 165.624 103.342 166.092C103.846 166.548 104.5 166.776 105.304 166.776C106.012 166.776 106.63 166.614 107.158 166.29C107.698 165.954 108.106 165.51 108.382 164.958H110.146C109.714 165.906 109.048 166.68 108.148 167.28C107.26 167.868 106.228 168.162 105.052 168.162C103.816 168.162 102.82 167.808 102.064 167.1C101.32 166.38 100.948 165.402 100.948 164.166C100.948 163.818 100.984 163.446 101.056 163.05C101.236 162.03 101.602 161.136 102.154 160.368C102.706 159.6 103.384 159.012 104.188 158.604C105.004 158.184 105.886 157.974 106.834 157.974ZM109.102 162.438C109.138 162.198 109.156 161.976 109.156 161.772C109.156 161.004 108.91 160.41 108.418 159.99C107.938 159.57 107.308 159.36 106.528 159.36C105.688 159.36 104.926 159.636 104.242 160.188C103.558 160.728 103.096 161.478 102.856 162.438H109.102ZM125.463 160.71L125.211 162.096H118.029L118.281 160.71H125.463ZM132.369 166.686C134.109 165.45 135.483 164.448 136.491 163.68C137.499 162.9 138.369 162.09 139.101 161.25C139.845 160.398 140.289 159.57 140.433 158.766C140.469 158.55 140.487 158.334 140.487 158.118C140.487 157.554 140.325 157.11 140.001 156.786C139.677 156.462 139.161 156.3 138.453 156.3C137.649 156.3 136.977 156.558 136.437 157.074C135.897 157.578 135.531 158.256 135.339 159.108H133.755C134.043 157.764 134.637 156.726 135.537 155.994C136.437 155.262 137.493 154.896 138.705 154.896C139.785 154.896 140.625 155.16 141.225 155.688C141.837 156.216 142.143 156.948 142.143 157.884C142.143 158.172 142.119 158.442 142.071 158.694C141.903 159.654 141.435 160.602 140.667 161.538C139.911 162.474 139.089 163.296 138.201 164.004C137.313 164.712 136.203 165.54 134.871 166.488H141.063L140.829 167.856H132.153L132.369 166.686ZM143.856 161.466C144.216 159.426 144.828 157.83 145.692 156.678C146.568 155.526 147.846 154.95 149.526 154.95C150.822 154.95 151.746 155.304 152.298 156.012C152.862 156.708 153.144 157.686 153.144 158.946C153.144 159.69 153.06 160.53 152.892 161.466C152.532 163.518 151.914 165.12 151.038 166.272C150.174 167.424 148.902 168 147.222 168C145.926 168 144.996 167.652 144.432 166.956C143.88 166.248 143.604 165.258 143.604 163.986C143.604 163.242 143.688 162.402 143.856 161.466ZM151.29 161.466C151.458 160.482 151.542 159.696 151.542 159.108C151.542 158.256 151.368 157.602 151.02 157.146C150.684 156.678 150.102 156.444 149.274 156.444C148.458 156.444 147.798 156.666 147.294 157.11C146.79 157.542 146.4 158.118 146.124 158.838C145.86 159.558 145.638 160.434 145.458 161.466C145.29 162.45 145.206 163.242 145.206 163.842C145.206 164.694 145.374 165.354 145.71 165.822C146.058 166.278 146.646 166.506 147.474 166.506C148.29 166.506 148.95 166.29 149.454 165.858C149.958 165.414 150.342 164.832 150.606 164.112C150.87 163.392 151.098 162.51 151.29 161.466ZM154.025 166.686C155.765 165.45 157.139 164.448 158.147 163.68C159.155 162.9 160.025 162.09 160.757 161.25C161.501 160.398 161.945 159.57 162.089 158.766C162.125 158.55 162.143 158.334 162.143 158.118C162.143 157.554 161.981 157.11 161.657 156.786C161.333 156.462 160.817 156.3 160.109 156.3C159.305 156.3 158.633 156.558 158.093 157.074C157.553 157.578 157.187 158.256 156.995 159.108H155.411C155.699 157.764 156.293 156.726 157.193 155.994C158.093 155.262 159.149 154.896 160.361 154.896C161.441 154.896 162.281 155.16 162.881 155.688C163.493 156.216 163.799 156.948 163.799 157.884C163.799 158.172 163.775 158.442 163.727 158.694C163.559 159.654 163.091 160.602 162.323 161.538C161.567 162.474 160.745 163.296 159.857 164.004C158.969 164.712 157.859 165.54 156.527 166.488H162.719L162.485 167.856H153.809L154.025 166.686ZM166.017 158.262C166.293 157.158 166.875 156.294 167.763 155.67C168.651 155.046 169.707 154.734 170.931 154.734C172.023 154.734 172.857 154.986 173.433 155.49C174.009 155.982 174.297 156.636 174.297 157.452C174.297 157.656 174.279 157.866 174.243 158.082C174.111 158.826 173.787 159.468 173.271 160.008C172.755 160.548 172.137 160.896 171.417 161.052V161.142C172.053 161.298 172.545 161.598 172.893 162.042C173.253 162.474 173.433 163.038 173.433 163.734C173.433 163.878 173.409 164.13 173.361 164.49C173.169 165.546 172.653 166.41 171.813 167.082C170.985 167.754 169.917 168.09 168.609 168.09C167.433 168.09 166.497 167.802 165.801 167.226C165.105 166.65 164.757 165.828 164.757 164.76C164.757 164.544 164.763 164.376 164.775 164.256H166.359C166.311 164.976 166.497 165.564 166.917 166.02C167.349 166.476 167.985 166.704 168.825 166.704C169.653 166.704 170.331 166.488 170.859 166.056C171.387 165.612 171.711 165.042 171.831 164.346C171.867 164.142 171.885 163.962 171.885 163.806C171.885 163.11 171.615 162.606 171.075 162.294C170.535 161.97 169.725 161.808 168.645 161.808H168.213L168.465 160.44H168.915C170.019 160.428 170.883 160.248 171.507 159.9C172.131 159.54 172.509 158.988 172.641 158.244C172.665 158.052 172.677 157.908 172.677 157.812C172.677 157.296 172.503 156.888 172.155 156.588C171.807 156.288 171.297 156.138 170.625 156.138C169.881 156.138 169.245 156.33 168.717 156.714C168.189 157.098 167.823 157.614 167.619 158.262H166.017Z" fill="#E2E2FF"/>
<path d="M5.436 194.49C6.768 194.49 7.932 194.748 8.928 195.264C9.936 195.768 10.71 196.5 11.25 197.46C11.802 198.408 12.078 199.518 12.078 200.79C12.078 202.062 11.802 203.166 11.25 204.102C10.71 205.038 9.936 205.758 8.928 206.262C7.932 206.754 6.768 207 5.436 207H1.35V194.49H5.436ZM5.436 205.326C6.9 205.326 8.022 204.93 8.802 204.138C9.582 203.346 9.972 202.23 9.972 200.79C9.972 199.338 9.582 198.204 8.802 197.388C8.022 196.572 6.9 196.164 5.436 196.164H3.402V205.326H5.436ZM23.2017 201.798C23.2017 202.17 23.1777 202.506 23.1297 202.806H15.5517C15.6117 203.598 15.9057 204.234 16.4337 204.714C16.9617 205.194 17.6097 205.434 18.3777 205.434C19.4817 205.434 20.2617 204.972 20.7177 204.048H22.9317C22.6317 204.96 22.0857 205.71 21.2937 206.298C20.5137 206.874 19.5417 207.162 18.3777 207.162C17.4297 207.162 16.5777 206.952 15.8217 206.532C15.0777 206.1 14.4897 205.5 14.0577 204.732C13.6377 203.952 13.4277 203.052 13.4277 202.032C13.4277 201.012 13.6317 200.118 14.0397 199.35C14.4597 198.57 15.0417 197.97 15.7857 197.55C16.5417 197.13 17.4057 196.92 18.3777 196.92C19.3137 196.92 20.1477 197.124 20.8797 197.532C21.6117 197.94 22.1817 198.516 22.5897 199.26C22.9977 199.992 23.2017 200.838 23.2017 201.798ZM21.0597 201.15C21.0477 200.394 20.7777 199.788 20.2497 199.332C19.7217 198.876 19.0677 198.648 18.2877 198.648C17.5797 198.648 16.9737 198.876 16.4697 199.332C15.9657 199.776 15.6657 200.382 15.5697 201.15H21.0597ZM28.8211 207.162C28.0411 207.162 27.3391 207.024 26.7151 206.748C26.1031 206.46 25.6171 206.076 25.2571 205.596C24.8971 205.104 24.7051 204.558 24.6811 203.958H26.8051C26.8411 204.378 27.0391 204.732 27.3991 205.02C27.7711 205.296 28.2331 205.434 28.7851 205.434C29.3611 205.434 29.8051 205.326 30.1171 205.11C30.4411 204.882 30.6031 204.594 30.6031 204.246C30.6031 203.874 30.4231 203.598 30.0631 203.418C29.7151 203.238 29.1571 203.04 28.3891 202.824C27.6451 202.62 27.0391 202.422 26.5711 202.23C26.1031 202.038 25.6951 201.744 25.3471 201.348C25.0111 200.952 24.8431 200.43 24.8431 199.782C24.8431 199.254 24.9991 198.774 25.3111 198.342C25.6231 197.898 26.0671 197.55 26.6431 197.298C27.2311 197.046 27.9031 196.92 28.6591 196.92C29.7871 196.92 30.6931 197.208 31.3771 197.784C32.0731 198.348 32.4451 199.122 32.4931 200.106H30.4411C30.4051 199.662 30.2251 199.308 29.9011 199.044C29.5771 198.78 29.1391 198.648 28.5871 198.648C28.0471 198.648 27.6331 198.75 27.3451 198.954C27.0571 199.158 26.9131 199.428 26.9131 199.764C26.9131 200.028 27.0091 200.25 27.2011 200.43C27.3931 200.61 27.6271 200.754 27.9031 200.862C28.1791 200.958 28.5871 201.084 29.1271 201.24C29.8471 201.432 30.4351 201.63 30.8911 201.834C31.3591 202.026 31.7611 202.314 32.0971 202.698C32.4331 203.082 32.6071 203.592 32.6191 204.228C32.6191 204.792 32.4631 205.296 32.1511 205.74C31.8391 206.184 31.3951 206.532 30.8191 206.784C30.2551 207.036 29.5891 207.162 28.8211 207.162ZM34.1523 201.996C34.1523 201 34.3563 200.118 34.7643 199.35C35.1843 198.582 35.7483 197.988 36.4563 197.568C37.1763 197.136 37.9683 196.92 38.8323 196.92C39.6123 196.92 40.2903 197.076 40.8663 197.388C41.4543 197.688 41.9223 198.066 42.2703 198.522V197.082H44.3403V207H42.2703V205.524C41.9223 205.992 41.4483 206.382 40.8483 206.694C40.2483 207.006 39.5643 207.162 38.7963 207.162C37.9443 207.162 37.1643 206.946 36.4563 206.514C35.7483 206.07 35.1843 205.458 34.7643 204.678C34.3563 203.886 34.1523 202.992 34.1523 201.996ZM42.2703 202.032C42.2703 201.348 42.1263 200.754 41.8383 200.25C41.5623 199.746 41.1963 199.362 40.7403 199.098C40.2843 198.834 39.7923 198.702 39.2643 198.702C38.7363 198.702 38.2443 198.834 37.7883 199.098C37.3323 199.35 36.9603 199.728 36.6723 200.232C36.3963 200.724 36.2583 201.312 36.2583 201.996C36.2583 202.68 36.3963 203.28 36.6723 203.796C36.9603 204.312 37.3323 204.708 37.7883 204.984C38.2563 205.248 38.7483 205.38 39.2643 205.38C39.7923 205.38 40.2843 205.248 40.7403 204.984C41.1963 204.72 41.5623 204.336 41.8383 203.832C42.1263 203.316 42.2703 202.716 42.2703 202.032ZM49.0875 198.522C49.3875 198.018 49.7835 197.628 50.2755 197.352C50.7795 197.064 51.3735 196.92 52.0575 196.92V199.044H51.5355C50.7315 199.044 50.1195 199.248 49.6995 199.656C49.2915 200.064 49.0875 200.772 49.0875 201.78V207H47.0355V197.082H49.0875V198.522ZM55.9958 198.522C56.2958 198.018 56.6918 197.628 57.1838 197.352C57.6878 197.064 58.2818 196.92 58.9658 196.92V199.044H58.4438C57.6398 199.044 57.0278 199.248 56.6078 199.656C56.1998 200.064 55.9958 200.772 55.9958 201.78V207H53.9438V197.082H55.9958V198.522ZM65.154 207.162C64.218 207.162 63.372 206.952 62.616 206.532C61.86 206.1 61.266 205.5 60.834 204.732C60.402 203.952 60.186 203.052 60.186 202.032C60.186 201.024 60.408 200.13 60.852 199.35C61.296 198.57 61.902 197.97 62.67 197.55C63.438 197.13 64.296 196.92 65.244 196.92C66.192 196.92 67.05 197.13 67.818 197.55C68.586 197.97 69.192 198.57 69.636 199.35C70.08 200.13 70.302 201.024 70.302 202.032C70.302 203.04 70.074 203.934 69.618 204.714C69.162 205.494 68.538 206.1 67.746 206.532C66.966 206.952 66.102 207.162 65.154 207.162ZM65.154 205.38C65.682 205.38 66.174 205.254 66.63 205.002C67.098 204.75 67.476 204.372 67.764 203.868C68.052 203.364 68.196 202.752 68.196 202.032C68.196 201.312 68.058 200.706 67.782 200.214C67.506 199.71 67.14 199.332 66.684 199.08C66.228 198.828 65.736 198.702 65.208 198.702C64.68 198.702 64.188 198.828 63.732 199.08C63.288 199.332 62.934 199.71 62.67 200.214C62.406 200.706 62.274 201.312 62.274 202.032C62.274 203.1 62.544 203.928 63.084 204.516C63.636 205.092 64.326 205.38 65.154 205.38ZM74.3825 193.68V207H72.3305V193.68H74.3825ZM79.1286 193.68V207H77.0766V193.68H79.1286ZM86.1247 207.162C85.1887 207.162 84.3427 206.952 83.5867 206.532C82.8307 206.1 82.2367 205.5 81.8047 204.732C81.3727 203.952 81.1567 203.052 81.1567 202.032C81.1567 201.024 81.3787 200.13 81.8227 199.35C82.2667 198.57 82.8727 197.97 83.6407 197.55C84.4087 197.13 85.2667 196.92 86.2147 196.92C87.1627 196.92 88.0207 197.13 88.7887 197.55C89.5567 197.97 90.1627 198.57 90.6067 199.35C91.0507 200.13 91.2727 201.024 91.2727 202.032C91.2727 203.04 91.0447 203.934 90.5887 204.714C90.1327 205.494 89.5087 206.1 88.7167 206.532C87.9367 206.952 87.0727 207.162 86.1247 207.162ZM86.1247 205.38C86.6527 205.38 87.1447 205.254 87.6007 205.002C88.0687 204.75 88.4467 204.372 88.7347 203.868C89.0227 203.364 89.1667 202.752 89.1667 202.032C89.1667 201.312 89.0287 200.706 88.7527 200.214C88.4767 199.71 88.1107 199.332 87.6547 199.08C87.1987 198.828 86.7067 198.702 86.1787 198.702C85.6507 198.702 85.1587 198.828 84.7027 199.08C84.2587 199.332 83.9047 199.71 83.6407 200.214C83.3767 200.706 83.2447 201.312 83.2447 202.032C83.2447 203.1 83.5147 203.928 84.0547 204.516C84.6067 205.092 85.2967 205.38 86.1247 205.38ZM114.267 194.49L110.559 207H108.237L105.609 197.532L102.819 207L100.515 207.018L96.969 194.49H99.147L101.739 204.678L104.547 194.49H106.851L109.461 204.624L112.071 194.49H114.267ZM125.049 201.798C125.049 202.17 125.025 202.506 124.977 202.806H117.399C117.459 203.598 117.753 204.234 118.281 204.714C118.809 205.194 119.457 205.434 120.225 205.434C121.329 205.434 122.109 204.972 122.565 204.048H124.779C124.479 204.96 123.933 205.71 123.141 206.298C122.361 206.874 121.389 207.162 120.225 207.162C119.277 207.162 118.425 206.952 117.669 206.532C116.925 206.1 116.337 205.5 115.905 204.732C115.485 203.952 115.275 203.052 115.275 202.032C115.275 201.012 115.479 200.118 115.887 199.35C116.307 198.57 116.889 197.97 117.633 197.55C118.389 197.13 119.253 196.92 120.225 196.92C121.161 196.92 121.995 197.124 122.727 197.532C123.459 197.94 124.029 198.516 124.437 199.26C124.845 199.992 125.049 200.838 125.049 201.798ZM122.907 201.15C122.895 200.394 122.625 199.788 122.097 199.332C121.569 198.876 120.915 198.648 120.135 198.648C119.427 198.648 118.821 198.876 118.317 199.332C117.813 199.776 117.513 200.382 117.417 201.15H122.907ZM129.121 198.558C129.469 198.078 129.943 197.688 130.543 197.388C131.155 197.076 131.833 196.92 132.577 196.92C133.453 196.92 134.245 197.13 134.953 197.55C135.661 197.97 136.219 198.57 136.627 199.35C137.035 200.118 137.239 201 137.239 201.996C137.239 202.992 137.035 203.886 136.627 204.678C136.219 205.458 135.655 206.07 134.935 206.514C134.227 206.946 133.441 207.162 132.577 207.162C131.809 207.162 131.125 207.012 130.525 206.712C129.937 206.412 129.469 206.028 129.121 205.56V207H127.069V193.68H129.121V198.558ZM135.151 201.996C135.151 201.312 135.007 200.724 134.719 200.232C134.443 199.728 134.071 199.35 133.603 199.098C133.147 198.834 132.655 198.702 132.127 198.702C131.611 198.702 131.119 198.834 130.651 199.098C130.195 199.362 129.823 199.746 129.535 200.25C129.259 200.754 129.121 201.348 129.121 202.032C129.121 202.716 129.259 203.316 129.535 203.832C129.823 204.336 130.195 204.72 130.651 204.984C131.119 205.248 131.611 205.38 132.127 205.38C132.655 205.38 133.147 205.248 133.603 204.984C134.071 204.708 134.443 204.312 134.719 203.796C135.007 203.28 135.151 202.68 135.151 201.996ZM0.972 227.718C1.188 226.494 1.656 225.396 2.376 224.424C3.108 223.44 3.996 222.672 5.04 222.12C6.096 221.568 7.2 221.292 8.352 221.292C9.72 221.292 10.854 221.622 11.754 222.282C12.666 222.942 13.254 223.878 13.518 225.09H11.556C11.34 224.358 10.938 223.794 10.35 223.398C9.762 222.99 9.012 222.786 8.1 222.786C7.224 222.786 6.402 222.99 5.634 223.398C4.878 223.794 4.236 224.37 3.708 225.126C3.18 225.87 2.826 226.734 2.646 227.718C2.586 228.03 2.556 228.39 2.556 228.798C2.556 229.974 2.898 230.91 3.582 231.606C4.278 232.29 5.202 232.632 6.354 232.632C7.266 232.632 8.088 232.434 8.82 232.038C9.552 231.642 10.152 231.078 10.62 230.346H12.582C11.898 231.546 10.986 232.476 9.846 233.136C8.718 233.784 7.47 234.108 6.102 234.108C5.082 234.108 4.176 233.898 3.384 233.478C2.592 233.046 1.974 232.446 1.53 231.678C1.086 230.898 0.864 230.004 0.864 228.996C0.864 228.576 0.9 228.15 0.972 227.718ZM18.7103 234.162C17.8823 234.162 17.1503 233.994 16.5143 233.658C15.8903 233.31 15.4043 232.83 15.0563 232.218C14.7083 231.594 14.5343 230.874 14.5343 230.058C14.5343 228.942 14.7923 227.922 15.3083 226.998C15.8243 226.062 16.5323 225.324 17.4323 224.784C18.3443 224.244 19.3583 223.974 20.4743 223.974C21.3023 223.974 22.0343 224.148 22.6703 224.496C23.3183 224.832 23.8163 225.312 24.1643 225.936C24.5243 226.548 24.7043 227.268 24.7043 228.096C24.7043 229.212 24.4403 230.232 23.9123 231.156C23.3843 232.08 22.6643 232.812 21.7523 233.352C20.8403 233.892 19.8263 234.162 18.7103 234.162ZM18.9083 232.776C19.6883 232.776 20.3903 232.566 21.0143 232.146C21.6383 231.714 22.1243 231.15 22.4723 230.454C22.8323 229.746 23.0123 228.99 23.0123 228.186C23.0123 227.274 22.7483 226.578 22.2203 226.098C21.6923 225.606 21.0323 225.36 20.2403 225.36C19.4603 225.36 18.7643 225.576 18.1523 226.008C17.5403 226.428 17.0663 226.992 16.7303 227.7C16.3943 228.408 16.2263 229.17 16.2263 229.986C16.2263 230.874 16.4783 231.564 16.9823 232.056C17.4863 232.536 18.1283 232.776 18.9083 232.776ZM26.138 229.032C26.318 228.024 26.678 227.142 27.218 226.386C27.77 225.618 28.442 225.024 29.234 224.604C30.026 224.184 30.866 223.974 31.754 223.974C32.51 223.974 33.188 224.154 33.788 224.514C34.388 224.862 34.814 225.324 35.066 225.9L35.984 220.68H37.64L35.282 234H33.626L33.968 232.146C33.548 232.734 32.984 233.22 32.276 233.604C31.568 233.976 30.788 234.162 29.936 234.162C29.168 234.162 28.49 234 27.902 233.676C27.314 233.34 26.852 232.866 26.516 232.254C26.192 231.642 26.03 230.934 26.03 230.13C26.03 229.77 26.066 229.404 26.138 229.032ZM34.508 229.05C34.556 228.798 34.58 228.528 34.58 228.24C34.58 227.364 34.316 226.674 33.788 226.17C33.272 225.654 32.612 225.396 31.808 225.396C31.196 225.396 30.608 225.54 30.044 225.828C29.492 226.116 29.018 226.536 28.622 227.088C28.226 227.64 27.962 228.288 27.83 229.032C27.782 229.284 27.758 229.56 27.758 229.86C27.758 230.748 28.016 231.45 28.532 231.966C29.048 232.47 29.708 232.722 30.512 232.722C31.124 232.722 31.706 232.578 32.258 232.29C32.822 231.99 33.302 231.564 33.698 231.012C34.106 230.448 34.376 229.794 34.508 229.05ZM44.08 223.974C44.908 223.974 45.622 224.136 46.222 224.46C46.834 224.772 47.296 225.216 47.608 225.792C47.932 226.356 48.094 227.004 48.094 227.736C48.094 227.988 48.064 228.294 48.004 228.654C47.956 228.966 47.878 229.29 47.77 229.626H39.886C39.862 229.866 39.85 230.04 39.85 230.148C39.85 230.976 40.096 231.624 40.588 232.092C41.092 232.548 41.746 232.776 42.55 232.776C43.258 232.776 43.876 232.614 44.404 232.29C44.944 231.954 45.352 231.51 45.628 230.958H47.392C46.96 231.906 46.294 232.68 45.394 233.28C44.506 233.868 43.474 234.162 42.298 234.162C41.062 234.162 40.066 233.808 39.31 233.1C38.566 232.38 38.194 231.402 38.194 230.166C38.194 229.818 38.23 229.446 38.302 229.05C38.482 228.03 38.848 227.136 39.4 226.368C39.952 225.6 40.63 225.012 41.434 224.604C42.25 224.184 43.132 223.974 44.08 223.974ZM46.348 228.438C46.384 228.198 46.402 227.976 46.402 227.772C46.402 227.004 46.156 226.41 45.664 225.99C45.184 225.57 44.554 225.36 43.774 225.36C42.934 225.36 42.172 225.636 41.488 226.188C40.804 226.728 40.342 227.478 40.102 228.438H46.348ZM52.2721 226.008C52.6681 225.36 53.1661 224.856 53.7661 224.496C54.3661 224.136 55.0501 223.956 55.8181 223.956L55.5121 225.648H55.0801C54.2281 225.648 53.5141 225.876 52.9381 226.332C52.3741 226.788 51.9961 227.556 51.8041 228.636L50.8501 234H49.2121L50.9581 224.136H52.5961L52.2721 226.008ZM67.807 221.454L65.593 234H63.955L64.963 228.276H58.591L57.565 234H55.927L58.159 221.454H59.797L58.807 226.998H65.197L66.169 221.454H67.807ZM72.7103 234.162C71.8823 234.162 71.1503 233.994 70.5143 233.658C69.8903 233.31 69.4043 232.83 69.0563 232.218C68.7083 231.594 68.5343 230.874 68.5343 230.058C68.5343 228.942 68.7923 227.922 69.3083 226.998C69.8243 226.062 70.5323 225.324 71.4323 224.784C72.3443 224.244 73.3583 223.974 74.4743 223.974C75.3023 223.974 76.0343 224.148 76.6703 224.496C77.3183 224.832 77.8163 225.312 78.1643 225.936C78.5243 226.548 78.7043 227.268 78.7043 228.096C78.7043 229.212 78.4403 230.232 77.9123 231.156C77.3843 232.08 76.6643 232.812 75.7523 233.352C74.8403 233.892 73.8263 234.162 72.7103 234.162ZM72.9083 232.776C73.6883 232.776 74.3903 232.566 75.0143 232.146C75.6383 231.714 76.1243 231.15 76.4723 230.454C76.8323 229.746 77.0123 228.99 77.0123 228.186C77.0123 227.274 76.7483 226.578 76.2203 226.098C75.6923 225.606 75.0323 225.36 74.2403 225.36C73.4603 225.36 72.7643 225.576 72.1523 226.008C71.5403 226.428 71.0663 226.992 70.7303 227.7C70.3943 228.408 70.2263 229.17 70.2263 229.986C70.2263 230.874 70.4783 231.564 70.9823 232.056C71.4863 232.536 72.1283 232.776 72.9083 232.776ZM90.38 224.136L88.634 234H86.996L87.248 232.56C86.852 233.064 86.348 233.454 85.736 233.73C85.124 234.006 84.488 234.144 83.828 234.144C82.796 234.144 81.968 233.868 81.344 233.316C80.732 232.752 80.426 231.948 80.426 230.904C80.426 230.64 80.456 230.31 80.516 229.914L81.542 224.136H83.162L82.19 229.698C82.142 229.95 82.118 230.214 82.118 230.49C82.118 231.222 82.316 231.78 82.712 232.164C83.12 232.536 83.684 232.722 84.404 232.722C85.268 232.722 86 232.452 86.6 231.912C87.212 231.372 87.602 230.586 87.77 229.554V229.608L88.742 224.136H90.38ZM94.8736 234.162C93.8416 234.162 92.9956 233.916 92.3356 233.424C91.6756 232.932 91.3456 232.272 91.3456 231.444C91.3456 231.288 91.3516 231.174 91.3636 231.102H92.9656C92.9176 231.618 93.0676 232.038 93.4156 232.362C93.7756 232.686 94.2916 232.848 94.9636 232.848C95.6356 232.848 96.1756 232.722 96.5836 232.47C97.0036 232.206 97.2136 231.84 97.2136 231.372C97.2136 230.976 97.0456 230.664 96.7096 230.436C96.3736 230.208 95.8576 229.962 95.1616 229.698C94.5496 229.47 94.0456 229.254 93.6496 229.05C93.2536 228.846 92.9176 228.564 92.6416 228.204C92.3656 227.832 92.2276 227.364 92.2276 226.8C92.2276 226.248 92.3836 225.756 92.6956 225.324C93.0196 224.892 93.4636 224.562 94.0276 224.334C94.6036 224.094 95.2576 223.974 95.9896 223.974C96.9976 223.974 97.8256 224.226 98.4736 224.73C99.1216 225.234 99.4456 225.894 99.4456 226.71C99.4456 226.866 99.4396 226.986 99.4276 227.07H97.8616L97.8796 226.854C97.8796 226.374 97.6936 225.996 97.3216 225.72C96.9616 225.432 96.4816 225.288 95.8816 225.288C95.2936 225.288 94.8076 225.42 94.4236 225.684C94.0516 225.948 93.8656 226.302 93.8656 226.746C93.8656 227.166 94.0396 227.496 94.3876 227.736C94.7356 227.976 95.2756 228.24 96.0076 228.528C96.6196 228.768 97.1116 228.99 97.4836 229.194C97.8556 229.386 98.1736 229.656 98.4376 230.004C98.7016 230.352 98.8336 230.79 98.8336 231.318C98.8336 231.894 98.6596 232.398 98.3116 232.83C97.9756 233.262 97.5076 233.592 96.9076 233.82C96.3076 234.048 95.6296 234.162 94.8736 234.162ZM106.834 223.974C107.662 223.974 108.376 224.136 108.976 224.46C109.588 224.772 110.05 225.216 110.362 225.792C110.686 226.356 110.848 227.004 110.848 227.736C110.848 227.988 110.818 228.294 110.758 228.654C110.71 228.966 110.632 229.29 110.524 229.626H102.64C102.616 229.866 102.604 230.04 102.604 230.148C102.604 230.976 102.85 231.624 103.342 232.092C103.846 232.548 104.5 232.776 105.304 232.776C106.012 232.776 106.63 232.614 107.158 232.29C107.698 231.954 108.106 231.51 108.382 230.958H110.146C109.714 231.906 109.048 232.68 108.148 233.28C107.26 233.868 106.228 234.162 105.052 234.162C103.816 234.162 102.82 233.808 102.064 233.1C101.32 232.38 100.948 231.402 100.948 230.166C100.948 229.818 100.984 229.446 101.056 229.05C101.236 228.03 101.602 227.136 102.154 226.368C102.706 225.6 103.384 225.012 104.188 224.604C105.004 224.184 105.886 223.974 106.834 223.974ZM109.102 228.438C109.138 228.198 109.156 227.976 109.156 227.772C109.156 227.004 108.91 226.41 108.418 225.99C107.938 225.57 107.308 225.36 106.528 225.36C105.688 225.36 104.926 225.636 104.242 226.188C103.558 226.728 103.096 227.478 102.856 228.438H109.102ZM125.463 226.71L125.211 228.096H118.029L118.281 226.71H125.463ZM132.369 232.686C134.109 231.45 135.483 230.448 136.491 229.68C137.499 228.9 138.369 228.09 139.101 227.25C139.845 226.398 140.289 225.57 140.433 224.766C140.469 224.55 140.487 224.334 140.487 224.118C140.487 223.554 140.325 223.11 140.001 222.786C139.677 222.462 139.161 222.3 138.453 222.3C137.649 222.3 136.977 222.558 136.437 223.074C135.897 223.578 135.531 224.256 135.339 225.108H133.755C134.043 223.764 134.637 222.726 135.537 221.994C136.437 221.262 137.493 220.896 138.705 220.896C139.785 220.896 140.625 221.16 141.225 221.688C141.837 222.216 142.143 222.948 142.143 223.884C142.143 224.172 142.119 224.442 142.071 224.694C141.903 225.654 141.435 226.602 140.667 227.538C139.911 228.474 139.089 229.296 138.201 230.004C137.313 230.712 136.203 231.54 134.871 232.488H141.063L140.829 233.856H132.153L132.369 232.686ZM143.856 227.466C144.216 225.426 144.828 223.83 145.692 222.678C146.568 221.526 147.846 220.95 149.526 220.95C150.822 220.95 151.746 221.304 152.298 222.012C152.862 222.708 153.144 223.686 153.144 224.946C153.144 225.69 153.06 226.53 152.892 227.466C152.532 229.518 151.914 231.12 151.038 232.272C150.174 233.424 148.902 234 147.222 234C145.926 234 144.996 233.652 144.432 232.956C143.88 232.248 143.604 231.258 143.604 229.986C143.604 229.242 143.688 228.402 143.856 227.466ZM151.29 227.466C151.458 226.482 151.542 225.696 151.542 225.108C151.542 224.256 151.368 223.602 151.02 223.146C150.684 222.678 150.102 222.444 149.274 222.444C148.458 222.444 147.798 222.666 147.294 223.11C146.79 223.542 146.4 224.118 146.124 224.838C145.86 225.558 145.638 226.434 145.458 227.466C145.29 228.45 145.206 229.242 145.206 229.842C145.206 230.694 145.374 231.354 145.71 231.822C146.058 232.278 146.646 232.506 147.474 232.506C148.29 232.506 148.95 232.29 149.454 231.858C149.958 231.414 150.342 230.832 150.606 230.112C150.87 229.392 151.098 228.51 151.29 227.466ZM154.025 232.686C155.765 231.45 157.139 230.448 158.147 229.68C159.155 228.9 160.025 228.09 160.757 227.25C161.501 226.398 161.945 225.57 162.089 224.766C162.125 224.55 162.143 224.334 162.143 224.118C162.143 223.554 161.981 223.11 161.657 222.786C161.333 222.462 160.817 222.3 160.109 222.3C159.305 222.3 158.633 222.558 158.093 223.074C157.553 223.578 157.187 224.256 156.995 225.108H155.411C155.699 223.764 156.293 222.726 157.193 221.994C158.093 221.262 159.149 220.896 160.361 220.896C161.441 220.896 162.281 221.16 162.881 221.688C163.493 222.216 163.799 222.948 163.799 223.884C163.799 224.172 163.775 224.442 163.727 224.694C163.559 225.654 163.091 226.602 162.323 227.538C161.567 228.474 160.745 229.296 159.857 230.004C158.969 230.712 157.859 231.54 156.527 232.488H162.719L162.485 233.856H153.809L154.025 232.686ZM166.017 224.262C166.293 223.158 166.875 222.294 167.763 221.67C168.651 221.046 169.707 220.734 170.931 220.734C172.023 220.734 172.857 220.986 173.433 221.49C174.009 221.982 174.297 222.636 174.297 223.452C174.297 223.656 174.279 223.866 174.243 224.082C174.111 224.826 173.787 225.468 173.271 226.008C172.755 226.548 172.137 226.896 171.417 227.052V227.142C172.053 227.298 172.545 227.598 172.893 228.042C173.253 228.474 173.433 229.038 173.433 229.734C173.433 229.878 173.409 230.13 173.361 230.49C173.169 231.546 172.653 232.41 171.813 233.082C170.985 233.754 169.917 234.09 168.609 234.09C167.433 234.09 166.497 233.802 165.801 233.226C165.105 232.65 164.757 231.828 164.757 230.76C164.757 230.544 164.763 230.376 164.775 230.256H166.359C166.311 230.976 166.497 231.564 166.917 232.02C167.349 232.476 167.985 232.704 168.825 232.704C169.653 232.704 170.331 232.488 170.859 232.056C171.387 231.612 171.711 231.042 171.831 230.346C171.867 230.142 171.885 229.962 171.885 229.806C171.885 229.11 171.615 228.606 171.075 228.294C170.535 227.97 169.725 227.808 168.645 227.808H168.213L168.465 226.44H168.915C170.019 226.428 170.883 226.248 171.507 225.9C172.131 225.54 172.509 224.988 172.641 224.244C172.665 224.052 172.677 223.908 172.677 223.812C172.677 223.296 172.503 222.888 172.155 222.588C171.807 222.288 171.297 222.138 170.625 222.138C169.881 222.138 169.245 222.33 168.717 222.714C168.189 223.098 167.823 223.614 167.619 224.262H166.017Z" fill="#E2E2FF"/>
<path d="M10.098 264.216C10.098 264.852 9.948 265.452 9.648 266.016C9.348 266.58 8.868 267.042 8.208 267.402C7.548 267.75 6.702 267.924 5.67 267.924H3.402V273H1.35V260.49H5.67C6.63 260.49 7.44 260.658 8.1 260.994C8.772 261.318 9.27 261.762 9.594 262.326C9.93 262.89 10.098 263.52 10.098 264.216ZM5.67 266.25C6.45 266.25 7.032 266.076 7.416 265.728C7.8 265.368 7.992 264.864 7.992 264.216C7.992 262.848 7.218 262.164 5.67 262.164H3.402V266.25H5.67ZM17.1851 262.92C17.9411 262.92 18.6131 263.082 19.2011 263.406C19.8011 263.73 20.2691 264.21 20.6051 264.846C20.9531 265.482 21.1271 266.25 21.1271 267.15V273H19.0931V267.456C19.0931 266.568 18.8711 265.89 18.4271 265.422C17.9831 264.942 17.3771 264.702 16.6091 264.702C15.8411 264.702 15.2291 264.942 14.7731 265.422C14.3291 265.89 14.1071 266.568 14.1071 267.456V273H12.0551V259.68H14.1071V264.234C14.4551 263.814 14.8931 263.49 15.4211 263.262C15.9611 263.034 16.5491 262.92 17.1851 262.92ZM28.0465 273.162C27.1105 273.162 26.2645 272.952 25.5085 272.532C24.7525 272.1 24.1585 271.5 23.7265 270.732C23.2945 269.952 23.0785 269.052 23.0785 268.032C23.0785 267.024 23.3005 266.13 23.7445 265.35C24.1885 264.57 24.7945 263.97 25.5625 263.55C26.3305 263.13 27.1885 262.92 28.1365 262.92C29.0845 262.92 29.9425 263.13 30.7105 263.55C31.4785 263.97 32.0845 264.57 32.5285 265.35C32.9725 266.13 33.1945 267.024 33.1945 268.032C33.1945 269.04 32.9665 269.934 32.5105 270.714C32.0545 271.494 31.4305 272.1 30.6385 272.532C29.8585 272.952 28.9945 273.162 28.0465 273.162ZM28.0465 271.38C28.5745 271.38 29.0665 271.254 29.5225 271.002C29.9905 270.75 30.3685 270.372 30.6565 269.868C30.9445 269.364 31.0885 268.752 31.0885 268.032C31.0885 267.312 30.9505 266.706 30.6745 266.214C30.3985 265.71 30.0325 265.332 29.5765 265.08C29.1205 264.828 28.6285 264.702 28.1005 264.702C27.5725 264.702 27.0805 264.828 26.6245 265.08C26.1805 265.332 25.8265 265.71 25.5625 266.214C25.2985 266.706 25.1665 267.312 25.1665 268.032C25.1665 269.1 25.4365 269.928 25.9765 270.516C26.5285 271.092 27.2185 271.38 28.0465 271.38ZM37.617 264.756V270.246C37.617 270.618 37.701 270.888 37.869 271.056C38.049 271.212 38.349 271.29 38.769 271.29H40.029V273H38.409C37.485 273 36.777 272.784 36.285 272.352C35.793 271.92 35.547 271.218 35.547 270.246V264.756H34.377V263.082H35.547V260.616H37.617V263.082H40.029V264.756H37.617ZM46.2223 273.162C45.2863 273.162 44.4403 272.952 43.6843 272.532C42.9283 272.1 42.3343 271.5 41.9023 270.732C41.4703 269.952 41.2543 269.052 41.2543 268.032C41.2543 267.024 41.4763 266.13 41.9203 265.35C42.3643 264.57 42.9703 263.97 43.7383 263.55C44.5063 263.13 45.3643 262.92 46.3123 262.92C47.2603 262.92 48.1183 263.13 48.8863 263.55C49.6543 263.97 50.2603 264.57 50.7043 265.35C51.1483 266.13 51.3703 267.024 51.3703 268.032C51.3703 269.04 51.1423 269.934 50.6863 270.714C50.2303 271.494 49.6063 272.1 48.8143 272.532C48.0343 272.952 47.1703 273.162 46.2223 273.162ZM46.2223 271.38C46.7503 271.38 47.2423 271.254 47.6983 271.002C48.1663 270.75 48.5443 270.372 48.8323 269.868C49.1203 269.364 49.2643 268.752 49.2643 268.032C49.2643 267.312 49.1263 266.706 48.8503 266.214C48.5743 265.71 48.2083 265.332 47.7523 265.08C47.2963 264.828 46.8043 264.702 46.2763 264.702C45.7483 264.702 45.2563 264.828 44.8003 265.08C44.3563 265.332 44.0023 265.71 43.7383 266.214C43.4743 266.706 43.3423 267.312 43.3423 268.032C43.3423 269.1 43.6123 269.928 44.1523 270.516C44.7043 271.092 45.3943 271.38 46.2223 271.38ZM56.9988 273.162C56.2188 273.162 55.5168 273.024 54.8928 272.748C54.2808 272.46 53.7948 272.076 53.4348 271.596C53.0748 271.104 52.8828 270.558 52.8588 269.958H54.9828C55.0188 270.378 55.2168 270.732 55.5768 271.02C55.9488 271.296 56.4108 271.434 56.9628 271.434C57.5388 271.434 57.9828 271.326 58.2948 271.11C58.6188 270.882 58.7808 270.594 58.7808 270.246C58.7808 269.874 58.6008 269.598 58.2408 269.418C57.8928 269.238 57.3348 269.04 56.5668 268.824C55.8228 268.62 55.2168 268.422 54.7488 268.23C54.2808 268.038 53.8728 267.744 53.5248 267.348C53.1888 266.952 53.0208 266.43 53.0208 265.782C53.0208 265.254 53.1768 264.774 53.4888 264.342C53.8008 263.898 54.2448 263.55 54.8208 263.298C55.4088 263.046 56.0808 262.92 56.8368 262.92C57.9648 262.92 58.8708 263.208 59.5548 263.784C60.2508 264.348 60.6228 265.122 60.6708 266.106H58.6188C58.5828 265.662 58.4028 265.308 58.0788 265.044C57.7548 264.78 57.3168 264.648 56.7648 264.648C56.2248 264.648 55.8108 264.75 55.5228 264.954C55.2348 265.158 55.0908 265.428 55.0908 265.764C55.0908 266.028 55.1868 266.25 55.3788 266.43C55.5708 266.61 55.8048 266.754 56.0808 266.862C56.3568 266.958 56.7648 267.084 57.3048 267.24C58.0248 267.432 58.6128 267.63 59.0688 267.834C59.5368 268.026 59.9388 268.314 60.2748 268.698C60.6108 269.082 60.7848 269.592 60.7968 270.228C60.7968 270.792 60.6408 271.296 60.3288 271.74C60.0168 272.184 59.5728 272.532 58.9968 272.784C58.4328 273.036 57.7668 273.162 56.9988 273.162ZM68.1441 262.92C68.9001 262.92 69.5721 263.082 70.1601 263.406C70.7601 263.73 71.2281 264.21 71.5641 264.846C71.9121 265.482 72.0861 266.25 72.0861 267.15V273H70.0521V267.456C70.0521 266.568 69.8301 265.89 69.3861 265.422C68.9421 264.942 68.3361 264.702 67.5681 264.702C66.8001 264.702 66.1881 264.942 65.7321 265.422C65.2881 265.89 65.0661 266.568 65.0661 267.456V273H63.0141V259.68H65.0661V264.234C65.4141 263.814 65.8521 263.49 66.3801 263.262C66.9201 263.034 67.5081 262.92 68.1441 262.92ZM79.0055 273.162C78.0695 273.162 77.2235 272.952 76.4675 272.532C75.7115 272.1 75.1175 271.5 74.6855 270.732C74.2535 269.952 74.0375 269.052 74.0375 268.032C74.0375 267.024 74.2595 266.13 74.7035 265.35C75.1475 264.57 75.7535 263.97 76.5215 263.55C77.2895 263.13 78.1475 262.92 79.0955 262.92C80.0435 262.92 80.9015 263.13 81.6695 263.55C82.4375 263.97 83.0435 264.57 83.4875 265.35C83.9315 266.13 84.1535 267.024 84.1535 268.032C84.1535 269.04 83.9255 269.934 83.4695 270.714C83.0135 271.494 82.3895 272.1 81.5975 272.532C80.8175 272.952 79.9535 273.162 79.0055 273.162ZM79.0055 271.38C79.5335 271.38 80.0255 271.254 80.4815 271.002C80.9495 270.75 81.3275 270.372 81.6155 269.868C81.9035 269.364 82.0475 268.752 82.0475 268.032C82.0475 267.312 81.9095 266.706 81.6335 266.214C81.3575 265.71 80.9915 265.332 80.5355 265.08C80.0795 264.828 79.5875 264.702 79.0595 264.702C78.5315 264.702 78.0395 264.828 77.5835 265.08C77.1395 265.332 76.7855 265.71 76.5215 266.214C76.2575 266.706 76.1255 267.312 76.1255 268.032C76.1255 269.1 76.3955 269.928 76.9355 270.516C77.4875 271.092 78.1775 271.38 79.0055 271.38ZM88.234 264.54C88.582 264.084 89.056 263.7 89.656 263.388C90.256 263.076 90.934 262.92 91.69 262.92C92.554 262.92 93.34 263.136 94.048 263.568C94.768 263.988 95.332 264.582 95.74 265.35C96.148 266.118 96.352 267 96.352 267.996C96.352 268.992 96.148 269.886 95.74 270.678C95.332 271.458 94.768 272.07 94.048 272.514C93.34 272.946 92.554 273.162 91.69 273.162C90.934 273.162 90.262 273.012 89.674 272.712C89.086 272.4 88.606 272.016 88.234 271.56V277.716H86.182V263.082H88.234V264.54ZM94.264 267.996C94.264 267.312 94.12 266.724 93.832 266.232C93.556 265.728 93.184 265.35 92.716 265.098C92.26 264.834 91.768 264.702 91.24 264.702C90.724 264.702 90.232 264.834 89.764 265.098C89.308 265.362 88.936 265.746 88.648 266.25C88.372 266.754 88.234 267.348 88.234 268.032C88.234 268.716 88.372 269.316 88.648 269.832C88.936 270.336 89.308 270.72 89.764 270.984C90.232 271.248 90.724 271.38 91.24 271.38C91.768 271.38 92.26 271.248 92.716 270.984C93.184 270.708 93.556 270.312 93.832 269.796C94.12 269.28 94.264 268.68 94.264 267.996ZM112.147 267.798C112.147 268.17 112.123 268.506 112.075 268.806H104.497C104.557 269.598 104.851 270.234 105.379 270.714C105.907 271.194 106.555 271.434 107.323 271.434C108.427 271.434 109.207 270.972 109.663 270.048H111.877C111.577 270.96 111.031 271.71 110.239 272.298C109.459 272.874 108.487 273.162 107.323 273.162C106.375 273.162 105.523 272.952 104.767 272.532C104.023 272.1 103.435 271.5 103.003 270.732C102.583 269.952 102.373 269.052 102.373 268.032C102.373 267.012 102.577 266.118 102.985 265.35C103.405 264.57 103.987 263.97 104.731 263.55C105.487 263.13 106.351 262.92 107.323 262.92C108.259 262.92 109.093 263.124 109.825 263.532C110.557 263.94 111.127 264.516 111.535 265.26C111.943 265.992 112.147 266.838 112.147 267.798ZM110.005 267.15C109.993 266.394 109.723 265.788 109.195 265.332C108.667 264.876 108.013 264.648 107.233 264.648C106.525 264.648 105.919 264.876 105.415 265.332C104.911 265.776 104.611 266.382 104.515 267.15H110.005ZM120.894 260.49V273H118.842V260.49H120.894ZM125.64 259.68V273H123.588V259.68H125.64ZM130.386 259.68V273H128.334V259.68H130.386ZM142.062 263.082V273H140.01V271.83C139.686 272.238 139.26 272.562 138.732 272.802C138.216 273.03 137.664 273.144 137.076 273.144C136.296 273.144 135.594 272.982 134.97 272.658C134.358 272.334 133.872 271.854 133.512 271.218C133.164 270.582 132.99 269.814 132.99 268.914V263.082H135.024V268.608C135.024 269.496 135.246 270.18 135.69 270.66C136.134 271.128 136.74 271.362 137.508 271.362C138.276 271.362 138.882 271.128 139.326 270.66C139.782 270.18 140.01 269.496 140.01 268.608V263.082H142.062ZM148.37 273.162C147.59 273.162 146.888 273.024 146.264 272.748C145.652 272.46 145.166 272.076 144.806 271.596C144.446 271.104 144.254 270.558 144.23 269.958H146.354C146.39 270.378 146.588 270.732 146.948 271.02C147.32 271.296 147.782 271.434 148.334 271.434C148.91 271.434 149.354 271.326 149.666 271.11C149.99 270.882 150.152 270.594 150.152 270.246C150.152 269.874 149.972 269.598 149.612 269.418C149.264 269.238 148.706 269.04 147.938 268.824C147.194 268.62 146.588 268.422 146.12 268.23C145.652 268.038 145.244 267.744 144.896 267.348C144.56 266.952 144.392 266.43 144.392 265.782C144.392 265.254 144.548 264.774 144.86 264.342C145.172 263.898 145.616 263.55 146.192 263.298C146.78 263.046 147.452 262.92 148.208 262.92C149.336 262.92 150.242 263.208 150.926 263.784C151.622 264.348 151.994 265.122 152.042 266.106H149.99C149.954 265.662 149.774 265.308 149.45 265.044C149.126 264.78 148.688 264.648 148.136 264.648C147.596 264.648 147.182 264.75 146.894 264.954C146.606 265.158 146.462 265.428 146.462 265.764C146.462 266.028 146.558 266.25 146.75 266.43C146.942 266.61 147.176 266.754 147.452 266.862C147.728 266.958 148.136 267.084 148.676 267.24C149.396 267.432 149.984 267.63 150.44 267.834C150.908 268.026 151.31 268.314 151.646 268.698C151.982 269.082 152.156 269.592 152.168 270.228C152.168 270.792 152.012 271.296 151.7 271.74C151.388 272.184 150.944 272.532 150.368 272.784C149.804 273.036 149.138 273.162 148.37 273.162ZM156.779 264.756V270.246C156.779 270.618 156.863 270.888 157.031 271.056C157.211 271.212 157.511 271.29 157.931 271.29H159.191V273H157.571C156.647 273 155.939 272.784 155.447 272.352C154.955 271.92 154.709 271.218 154.709 270.246V264.756H153.539V263.082H154.709V260.616H156.779V263.082H159.191V264.756H156.779ZM163.134 264.522C163.434 264.018 163.83 263.628 164.322 263.352C164.826 263.064 165.42 262.92 166.104 262.92V265.044H165.582C164.778 265.044 164.166 265.248 163.746 265.656C163.338 266.064 163.134 266.772 163.134 267.78V273H161.082V263.082H163.134V264.522ZM167.307 267.996C167.307 267 167.511 266.118 167.919 265.35C168.339 264.582 168.903 263.988 169.611 263.568C170.331 263.136 171.123 262.92 171.987 262.92C172.767 262.92 173.445 263.076 174.021 263.388C174.609 263.688 175.077 264.066 175.425 264.522V263.082H177.495V273H175.425V271.524C175.077 271.992 174.603 272.382 174.003 272.694C173.403 273.006 172.719 273.162 171.951 273.162C171.099 273.162 170.319 272.946 169.611 272.514C168.903 272.07 168.339 271.458 167.919 270.678C167.511 269.886 167.307 268.992 167.307 267.996ZM175.425 268.032C175.425 267.348 175.281 266.754 174.993 266.25C174.717 265.746 174.351 265.362 173.895 265.098C173.439 264.834 172.947 264.702 172.419 264.702C171.891 264.702 171.399 264.834 170.943 265.098C170.487 265.35 170.115 265.728 169.827 266.232C169.551 266.724 169.413 267.312 169.413 267.996C169.413 268.68 169.551 269.28 169.827 269.796C170.115 270.312 170.487 270.708 170.943 270.984C171.411 271.248 171.903 271.38 172.419 271.38C172.947 271.38 173.439 271.248 173.895 270.984C174.351 270.72 174.717 270.336 174.993 269.832C175.281 269.316 175.425 268.716 175.425 268.032ZM182.584 264.756V270.246C182.584 270.618 182.668 270.888 182.836 271.056C183.016 271.212 183.316 271.29 183.736 271.29H184.996V273H183.376C182.452 273 181.744 272.784 181.252 272.352C180.76 271.92 180.514 271.218 180.514 270.246V264.756H179.344V263.082H180.514V260.616H182.584V263.082H184.996V264.756H182.584ZM191.189 273.162C190.253 273.162 189.407 272.952 188.651 272.532C187.895 272.1 187.301 271.5 186.869 270.732C186.437 269.952 186.221 269.052 186.221 268.032C186.221 267.024 186.443 266.13 186.887 265.35C187.331 264.57 187.937 263.97 188.705 263.55C189.473 263.13 190.331 262.92 191.279 262.92C192.227 262.92 193.085 263.13 193.853 263.55C194.621 263.97 195.227 264.57 195.671 265.35C196.115 266.13 196.337 267.024 196.337 268.032C196.337 269.04 196.109 269.934 195.653 270.714C195.197 271.494 194.573 272.1 193.781 272.532C193.001 272.952 192.137 273.162 191.189 273.162ZM191.189 271.38C191.717 271.38 192.209 271.254 192.665 271.002C193.133 270.75 193.511 270.372 193.799 269.868C194.087 269.364 194.231 268.752 194.231 268.032C194.231 267.312 194.093 266.706 193.817 266.214C193.541 265.71 193.175 265.332 192.719 265.08C192.263 264.828 191.771 264.702 191.243 264.702C190.715 264.702 190.223 264.828 189.767 265.08C189.323 265.332 188.969 265.71 188.705 266.214C188.441 266.706 188.309 267.312 188.309 268.032C188.309 269.1 188.579 269.928 189.119 270.516C189.671 271.092 190.361 271.38 191.189 271.38ZM200.418 264.522C200.718 264.018 201.114 263.628 201.606 263.352C202.11 263.064 202.704 262.92 203.388 262.92V265.044H202.866C202.062 265.044 201.45 265.248 201.03 265.656C200.622 266.064 200.418 266.772 200.418 267.78V273H198.366V263.082H200.418V264.522ZM0.972 293.718C1.188 292.494 1.656 291.396 2.376 290.424C3.108 289.44 3.996 288.672 5.04 288.12C6.096 287.568 7.2 287.292 8.352 287.292C9.72 287.292 10.854 287.622 11.754 288.282C12.666 288.942 13.254 289.878 13.518 291.09H11.556C11.34 290.358 10.938 289.794 10.35 289.398C9.762 288.99 9.012 288.786 8.1 288.786C7.224 288.786 6.402 288.99 5.634 289.398C4.878 289.794 4.236 290.37 3.708 291.126C3.18 291.87 2.826 292.734 2.646 293.718C2.586 294.03 2.556 294.39 2.556 294.798C2.556 295.974 2.898 296.91 3.582 297.606C4.278 298.29 5.202 298.632 6.354 298.632C7.266 298.632 8.088 298.434 8.82 298.038C9.552 297.642 10.152 297.078 10.62 296.346H12.582C11.898 297.546 10.986 298.476 9.846 299.136C8.718 299.784 7.47 300.108 6.102 300.108C5.082 300.108 4.176 299.898 3.384 299.478C2.592 299.046 1.974 298.446 1.53 297.678C1.086 296.898 0.864 296.004 0.864 294.996C0.864 294.576 0.9 294.15 0.972 293.718ZM18.7103 300.162C17.8823 300.162 17.1503 299.994 16.5143 299.658C15.8903 299.31 15.4043 298.83 15.0563 298.218C14.7083 297.594 14.5343 296.874 14.5343 296.058C14.5343 294.942 14.7923 293.922 15.3083 292.998C15.8243 292.062 16.5323 291.324 17.4323 290.784C18.3443 290.244 19.3583 289.974 20.4743 289.974C21.3023 289.974 22.0343 290.148 22.6703 290.496C23.3183 290.832 23.8163 291.312 24.1643 291.936C24.5243 292.548 24.7043 293.268 24.7043 294.096C24.7043 295.212 24.4403 296.232 23.9123 297.156C23.3843 298.08 22.6643 298.812 21.7523 299.352C20.8403 299.892 19.8263 300.162 18.7103 300.162ZM18.9083 298.776C19.6883 298.776 20.3903 298.566 21.0143 298.146C21.6383 297.714 22.1243 297.15 22.4723 296.454C22.8323 295.746 23.0123 294.99 23.0123 294.186C23.0123 293.274 22.7483 292.578 22.2203 292.098C21.6923 291.606 21.0323 291.36 20.2403 291.36C19.4603 291.36 18.7643 291.576 18.1523 292.008C17.5403 292.428 17.0663 292.992 16.7303 293.7C16.3943 294.408 16.2263 295.17 16.2263 295.986C16.2263 296.874 16.4783 297.564 16.9823 298.056C17.4863 298.536 18.1283 298.776 18.9083 298.776ZM26.138 295.032C26.318 294.024 26.678 293.142 27.218 292.386C27.77 291.618 28.442 291.024 29.234 290.604C30.026 290.184 30.866 289.974 31.754 289.974C32.51 289.974 33.188 290.154 33.788 290.514C34.388 290.862 34.814 291.324 35.066 291.9L35.984 286.68H37.64L35.282 300H33.626L33.968 298.146C33.548 298.734 32.984 299.22 32.276 299.604C31.568 299.976 30.788 300.162 29.936 300.162C29.168 300.162 28.49 300 27.902 299.676C27.314 299.34 26.852 298.866 26.516 298.254C26.192 297.642 26.03 296.934 26.03 296.13C26.03 295.77 26.066 295.404 26.138 295.032ZM34.508 295.05C34.556 294.798 34.58 294.528 34.58 294.24C34.58 293.364 34.316 292.674 33.788 292.17C33.272 291.654 32.612 291.396 31.808 291.396C31.196 291.396 30.608 291.54 30.044 291.828C29.492 292.116 29.018 292.536 28.622 293.088C28.226 293.64 27.962 294.288 27.83 295.032C27.782 295.284 27.758 295.56 27.758 295.86C27.758 296.748 28.016 297.45 28.532 297.966C29.048 298.47 29.708 298.722 30.512 298.722C31.124 298.722 31.706 298.578 32.258 298.29C32.822 297.99 33.302 297.564 33.698 297.012C34.106 296.448 34.376 295.794 34.508 295.05ZM44.08 289.974C44.908 289.974 45.622 290.136 46.222 290.46C46.834 290.772 47.296 291.216 47.608 291.792C47.932 292.356 48.094 293.004 48.094 293.736C48.094 293.988 48.064 294.294 48.004 294.654C47.956 294.966 47.878 295.29 47.77 295.626H39.886C39.862 295.866 39.85 296.04 39.85 296.148C39.85 296.976 40.096 297.624 40.588 298.092C41.092 298.548 41.746 298.776 42.55 298.776C43.258 298.776 43.876 298.614 44.404 298.29C44.944 297.954 45.352 297.51 45.628 296.958H47.392C46.96 297.906 46.294 298.68 45.394 299.28C44.506 299.868 43.474 300.162 42.298 300.162C41.062 300.162 40.066 299.808 39.31 299.1C38.566 298.38 38.194 297.402 38.194 296.166C38.194 295.818 38.23 295.446 38.302 295.05C38.482 294.03 38.848 293.136 39.4 292.368C39.952 291.6 40.63 291.012 41.434 290.604C42.25 290.184 43.132 289.974 44.08 289.974ZM46.348 294.438C46.384 294.198 46.402 293.976 46.402 293.772C46.402 293.004 46.156 292.41 45.664 291.99C45.184 291.57 44.554 291.36 43.774 291.36C42.934 291.36 42.172 291.636 41.488 292.188C40.804 292.728 40.342 293.478 40.102 294.438H46.348ZM52.2721 292.008C52.6681 291.36 53.1661 290.856 53.7661 290.496C54.3661 290.136 55.0501 289.956 55.8181 289.956L55.5121 291.648H55.0801C54.2281 291.648 53.5141 291.876 52.9381 292.332C52.3741 292.788 51.9961 293.556 51.8041 294.636L50.8501 300H49.2121L50.9581 290.136H52.5961L52.2721 292.008ZM67.807 287.454L65.593 300H63.955L64.963 294.276H58.591L57.565 300H55.927L58.159 287.454H59.797L58.807 292.998H65.197L66.169 287.454H67.807ZM72.7103 300.162C71.8823 300.162 71.1503 299.994 70.5143 299.658C69.8903 299.31 69.4043 298.83 69.0563 298.218C68.7083 297.594 68.5343 296.874 68.5343 296.058C68.5343 294.942 68.7923 293.922 69.3083 292.998C69.8243 292.062 70.5323 291.324 71.4323 290.784C72.3443 290.244 73.3583 289.974 74.4743 289.974C75.3023 289.974 76.0343 290.148 76.6703 290.496C77.3183 290.832 77.8163 291.312 78.1643 291.936C78.5243 292.548 78.7043 293.268 78.7043 294.096C78.7043 295.212 78.4403 296.232 77.9123 297.156C77.3843 298.08 76.6643 298.812 75.7523 299.352C74.8403 299.892 73.8263 300.162 72.7103 300.162ZM72.9083 298.776C73.6883 298.776 74.3903 298.566 75.0143 298.146C75.6383 297.714 76.1243 297.15 76.4723 296.454C76.8323 295.746 77.0123 294.99 77.0123 294.186C77.0123 293.274 76.7483 292.578 76.2203 292.098C75.6923 291.606 75.0323 291.36 74.2403 291.36C73.4603 291.36 72.7643 291.576 72.1523 292.008C71.5403 292.428 71.0663 292.992 70.7303 293.7C70.3943 294.408 70.2263 295.17 70.2263 295.986C70.2263 296.874 70.4783 297.564 70.9823 298.056C71.4863 298.536 72.1283 298.776 72.9083 298.776ZM90.38 290.136L88.634 300H86.996L87.248 298.56C86.852 299.064 86.348 299.454 85.736 299.73C85.124 300.006 84.488 300.144 83.828 300.144C82.796 300.144 81.968 299.868 81.344 299.316C80.732 298.752 80.426 297.948 80.426 296.904C80.426 296.64 80.456 296.31 80.516 295.914L81.542 290.136H83.162L82.19 295.698C82.142 295.95 82.118 296.214 82.118 296.49C82.118 297.222 82.316 297.78 82.712 298.164C83.12 298.536 83.684 298.722 84.404 298.722C85.268 298.722 86 298.452 86.6 297.912C87.212 297.372 87.602 296.586 87.77 295.554V295.608L88.742 290.136H90.38ZM94.8736 300.162C93.8416 300.162 92.9956 299.916 92.3356 299.424C91.6756 298.932 91.3456 298.272 91.3456 297.444C91.3456 297.288 91.3516 297.174 91.3636 297.102H92.9656C92.9176 297.618 93.0676 298.038 93.4156 298.362C93.7756 298.686 94.2916 298.848 94.9636 298.848C95.6356 298.848 96.1756 298.722 96.5836 298.47C97.0036 298.206 97.2136 297.84 97.2136 297.372C97.2136 296.976 97.0456 296.664 96.7096 296.436C96.3736 296.208 95.8576 295.962 95.1616 295.698C94.5496 295.47 94.0456 295.254 93.6496 295.05C93.2536 294.846 92.9176 294.564 92.6416 294.204C92.3656 293.832 92.2276 293.364 92.2276 292.8C92.2276 292.248 92.3836 291.756 92.6956 291.324C93.0196 290.892 93.4636 290.562 94.0276 290.334C94.6036 290.094 95.2576 289.974 95.9896 289.974C96.9976 289.974 97.8256 290.226 98.4736 290.73C99.1216 291.234 99.4456 291.894 99.4456 292.71C99.4456 292.866 99.4396 292.986 99.4276 293.07H97.8616L97.8796 292.854C97.8796 292.374 97.6936 291.996 97.3216 291.72C96.9616 291.432 96.4816 291.288 95.8816 291.288C95.2936 291.288 94.8076 291.42 94.4236 291.684C94.0516 291.948 93.8656 292.302 93.8656 292.746C93.8656 293.166 94.0396 293.496 94.3876 293.736C94.7356 293.976 95.2756 294.24 96.0076 294.528C96.6196 294.768 97.1116 294.99 97.4836 295.194C97.8556 295.386 98.1736 295.656 98.4376 296.004C98.7016 296.352 98.8336 296.79 98.8336 297.318C98.8336 297.894 98.6596 298.398 98.3116 298.83C97.9756 299.262 97.5076 299.592 96.9076 299.82C96.3076 300.048 95.6296 300.162 94.8736 300.162ZM106.834 289.974C107.662 289.974 108.376 290.136 108.976 290.46C109.588 290.772 110.05 291.216 110.362 291.792C110.686 292.356 110.848 293.004 110.848 293.736C110.848 293.988 110.818 294.294 110.758 294.654C110.71 294.966 110.632 295.29 110.524 295.626H102.64C102.616 295.866 102.604 296.04 102.604 296.148C102.604 296.976 102.85 297.624 103.342 298.092C103.846 298.548 104.5 298.776 105.304 298.776C106.012 298.776 106.63 298.614 107.158 298.29C107.698 297.954 108.106 297.51 108.382 296.958H110.146C109.714 297.906 109.048 298.68 108.148 299.28C107.26 299.868 106.228 300.162 105.052 300.162C103.816 300.162 102.82 299.808 102.064 299.1C101.32 298.38 100.948 297.402 100.948 296.166C100.948 295.818 100.984 295.446 101.056 295.05C101.236 294.03 101.602 293.136 102.154 292.368C102.706 291.6 103.384 291.012 104.188 290.604C105.004 290.184 105.886 289.974 106.834 289.974ZM109.102 294.438C109.138 294.198 109.156 293.976 109.156 293.772C109.156 293.004 108.91 292.41 108.418 291.99C107.938 291.57 107.308 291.36 106.528 291.36C105.688 291.36 104.926 291.636 104.242 292.188C103.558 292.728 103.096 293.478 102.856 294.438H109.102ZM125.463 292.71L125.211 294.096H118.029L118.281 292.71H125.463ZM132.369 298.686C134.109 297.45 135.483 296.448 136.491 295.68C137.499 294.9 138.369 294.09 139.101 293.25C139.845 292.398 140.289 291.57 140.433 290.766C140.469 290.55 140.487 290.334 140.487 290.118C140.487 289.554 140.325 289.11 140.001 288.786C139.677 288.462 139.161 288.3 138.453 288.3C137.649 288.3 136.977 288.558 136.437 289.074C135.897 289.578 135.531 290.256 135.339 291.108H133.755C134.043 289.764 134.637 288.726 135.537 287.994C136.437 287.262 137.493 286.896 138.705 286.896C139.785 286.896 140.625 287.16 141.225 287.688C141.837 288.216 142.143 288.948 142.143 289.884C142.143 290.172 142.119 290.442 142.071 290.694C141.903 291.654 141.435 292.602 140.667 293.538C139.911 294.474 139.089 295.296 138.201 296.004C137.313 296.712 136.203 297.54 134.871 298.488H141.063L140.829 299.856H132.153L132.369 298.686ZM143.856 293.466C144.216 291.426 144.828 289.83 145.692 288.678C146.568 287.526 147.846 286.95 149.526 286.95C150.822 286.95 151.746 287.304 152.298 288.012C152.862 288.708 153.144 289.686 153.144 290.946C153.144 291.69 153.06 292.53 152.892 293.466C152.532 295.518 151.914 297.12 151.038 298.272C150.174 299.424 148.902 300 147.222 300C145.926 300 144.996 299.652 144.432 298.956C143.88 298.248 143.604 297.258 143.604 295.986C143.604 295.242 143.688 294.402 143.856 293.466ZM151.29 293.466C151.458 292.482 151.542 291.696 151.542 291.108C151.542 290.256 151.368 289.602 151.02 289.146C150.684 288.678 150.102 288.444 149.274 288.444C148.458 288.444 147.798 288.666 147.294 289.11C146.79 289.542 146.4 290.118 146.124 290.838C145.86 291.558 145.638 292.434 145.458 293.466C145.29 294.45 145.206 295.242 145.206 295.842C145.206 296.694 145.374 297.354 145.71 297.822C146.058 298.278 146.646 298.506 147.474 298.506C148.29 298.506 148.95 298.29 149.454 297.858C149.958 297.414 150.342 296.832 150.606 296.112C150.87 295.392 151.098 294.51 151.29 293.466ZM154.025 298.686C155.765 297.45 157.139 296.448 158.147 295.68C159.155 294.9 160.025 294.09 160.757 293.25C161.501 292.398 161.945 291.57 162.089 290.766C162.125 290.55 162.143 290.334 162.143 290.118C162.143 289.554 161.981 289.11 161.657 288.786C161.333 288.462 160.817 288.3 160.109 288.3C159.305 288.3 158.633 288.558 158.093 289.074C157.553 289.578 157.187 290.256 156.995 291.108H155.411C155.699 289.764 156.293 288.726 157.193 287.994C158.093 287.262 159.149 286.896 160.361 286.896C161.441 286.896 162.281 287.16 162.881 287.688C163.493 288.216 163.799 288.948 163.799 289.884C163.799 290.172 163.775 290.442 163.727 290.694C163.559 291.654 163.091 292.602 162.323 293.538C161.567 294.474 160.745 295.296 159.857 296.004C158.969 296.712 157.859 297.54 156.527 298.488H162.719L162.485 299.856H153.809L154.025 298.686ZM164.379 298.686C166.119 297.45 167.493 296.448 168.501 295.68C169.509 294.9 170.379 294.09 171.111 293.25C171.855 292.398 172.299 291.57 172.443 290.766C172.479 290.55 172.497 290.334 172.497 290.118C172.497 289.554 172.335 289.11 172.011 288.786C171.687 288.462 171.171 288.3 170.463 288.3C169.659 288.3 168.987 288.558 168.447 289.074C167.907 289.578 167.541 290.256 167.349 291.108H165.765C166.053 289.764 166.647 288.726 167.547 287.994C168.447 287.262 169.503 286.896 170.715 286.896C171.795 286.896 172.635 287.16 173.235 287.688C173.847 288.216 174.153 288.948 174.153 289.884C174.153 290.172 174.129 290.442 174.081 290.694C173.913 291.654 173.445 292.602 172.677 293.538C171.921 294.474 171.099 295.296 170.211 296.004C169.323 296.712 168.213 297.54 166.881 298.488H173.073L172.839 299.856H164.163L164.379 298.686Z" fill="#E2E2FF"/>
</svg>
